<svg xmlns="http://www.w3.org/2000/svg" xmlns:xlink="http://www.w3.org/1999/xlink" width="512" zoomAndPan="magnify" viewBox="0 0 384 383.999986" height="512" preserveAspectRatio="xMidYMid meet" version="1.0"><defs><clipPath id="2fc49c74ec"><path d="M 15.503906 77 L 368.753906 77 L 368.753906 307 L 15.503906 307 Z M 15.503906 77 " clip-rule="nonzero"/></clipPath></defs><g clip-path="url(#2fc49c74ec)"><path fill="#000000" d="M 364.875 77.152344 L 19.386719 77.152344 C 18.867188 77.152344 18.367188 77.25 17.886719 77.449219 C 17.402344 77.648438 16.980469 77.929688 16.613281 78.296875 C 16.242188 78.664062 15.960938 79.089844 15.761719 79.570312 C 15.5625 80.050781 15.460938 80.550781 15.460938 81.070312 L 15.460938 302.332031 C 15.460938 302.851562 15.5625 303.351562 15.761719 303.828125 C 15.960938 304.308594 16.242188 304.734375 16.613281 305.101562 C 16.980469 305.46875 17.402344 305.75 17.886719 305.949219 C 18.367188 306.148438 18.867188 306.25 19.386719 306.25 L 364.875 306.25 C 365.394531 306.25 365.894531 306.148438 366.375 305.949219 C 366.855469 305.75 367.28125 305.46875 367.648438 305.101562 C 368.015625 304.734375 368.300781 304.308594 368.5 303.828125 C 368.699219 303.351562 368.796875 302.851562 368.796875 302.332031 L 368.796875 81.070312 C 368.796875 80.550781 368.699219 80.050781 368.5 79.570312 C 368.300781 79.089844 368.015625 78.664062 367.648438 78.296875 C 367.28125 77.929688 366.855469 77.648438 366.375 77.449219 C 365.894531 77.25 365.394531 77.152344 364.875 77.152344 Z M 23.3125 84.988281 L 360.949219 84.988281 L 360.949219 128.046875 L 23.3125 128.046875 Z M 334.328125 135.882812 L 334.328125 298.410156 L 49.929688 298.410156 L 49.929688 135.882812 Z M 23.3125 298.410156 L 23.3125 135.882812 L 42.082031 135.882812 L 42.082031 298.410156 Z M 360.949219 298.410156 L 342.179688 298.410156 L 342.179688 135.882812 L 360.949219 135.882812 Z M 348.023438 95.65625 C 348.023438 95.128906 348.125 94.628906 348.328125 94.144531 C 348.527344 93.660156 348.816406 93.234375 349.1875 92.863281 C 349.558594 92.496094 349.988281 92.210938 350.472656 92.011719 C 350.957031 91.8125 351.460938 91.710938 351.984375 91.710938 C 352.511719 91.714844 353.015625 91.8125 353.5 92.015625 C 353.984375 92.214844 354.410156 92.503906 354.78125 92.875 C 355.152344 93.242188 355.4375 93.671875 355.636719 94.15625 C 355.835938 94.640625 355.9375 95.144531 355.9375 95.667969 C 355.933594 96.191406 355.835938 96.695312 355.632812 97.179688 C 355.429688 97.660156 355.144531 98.089844 354.773438 98.457031 C 354.402344 98.828125 353.972656 99.113281 353.488281 99.3125 C 353.003906 99.511719 352.5 99.613281 351.976562 99.613281 C 351.714844 99.613281 351.457031 99.585938 351.203125 99.535156 C 350.949219 99.484375 350.699219 99.410156 350.460938 99.3125 C 350.21875 99.210938 349.992188 99.089844 349.777344 98.945312 C 349.558594 98.800781 349.359375 98.636719 349.175781 98.453125 C 348.992188 98.269531 348.828125 98.070312 348.683594 97.851562 C 348.542969 97.636719 348.417969 97.40625 348.320312 97.167969 C 348.222656 96.929688 348.148438 96.679688 348.097656 96.425781 C 348.046875 96.171875 348.023438 95.914062 348.023438 95.65625 Z M 335.070312 95.65625 C 335.070312 95.128906 335.171875 94.628906 335.375 94.144531 C 335.574219 93.660156 335.863281 93.234375 336.234375 92.863281 C 336.605469 92.496094 337.03125 92.210938 337.515625 92.011719 C 338.003906 91.8125 338.507812 91.710938 339.03125 91.710938 C 339.554688 91.710938 340.058594 91.8125 340.542969 92.015625 C 341.027344 92.214844 341.457031 92.5 341.824219 92.871094 C 342.195312 93.242188 342.480469 93.667969 342.683594 94.152344 C 342.882812 94.636719 342.984375 95.140625 342.984375 95.664062 C 342.984375 96.1875 342.882812 96.6875 342.683594 97.171875 C 342.480469 97.65625 342.195312 98.082031 341.824219 98.453125 C 341.457031 98.824219 341.027344 99.109375 340.542969 99.308594 C 340.058594 99.511719 339.554688 99.613281 339.03125 99.613281 C 338.769531 99.613281 338.511719 99.585938 338.257812 99.535156 C 338.003906 99.484375 337.753906 99.410156 337.515625 99.3125 C 337.277344 99.210938 337.046875 99.089844 336.832031 98.945312 C 336.617188 98.800781 336.414062 98.636719 336.230469 98.453125 C 336.046875 98.269531 335.882812 98.070312 335.742188 97.851562 C 335.597656 97.636719 335.476562 97.40625 335.375 97.167969 C 335.277344 96.929688 335.203125 96.679688 335.152344 96.425781 C 335.101562 96.171875 335.078125 95.914062 335.078125 95.65625 Z M 322.117188 95.65625 C 322.121094 95.132812 322.21875 94.628906 322.421875 94.144531 C 322.621094 93.664062 322.910156 93.234375 323.28125 92.867188 C 323.652344 92.496094 324.078125 92.210938 324.5625 92.011719 C 325.046875 91.8125 325.550781 91.710938 326.074219 91.710938 C 326.597656 91.710938 327.101562 91.8125 327.585938 92.011719 C 328.070312 92.210938 328.5 92.496094 328.871094 92.867188 C 329.242188 93.234375 329.527344 93.664062 329.726562 94.144531 C 329.929688 94.628906 330.03125 95.132812 330.03125 95.65625 C 330.03125 96.175781 329.933594 96.679688 329.734375 97.164062 C 329.535156 97.648438 329.25 98.074219 328.878906 98.445312 C 328.511719 98.816406 328.085938 99.105469 327.601562 99.304688 C 327.117188 99.507812 326.613281 99.609375 326.089844 99.613281 C 325.828125 99.613281 325.574219 99.585938 325.316406 99.535156 C 325.0625 99.484375 324.8125 99.410156 324.574219 99.3125 C 324.332031 99.210938 324.105469 99.089844 323.890625 98.945312 C 323.671875 98.800781 323.472656 98.636719 323.289062 98.453125 C 323.105469 98.269531 322.941406 98.070312 322.796875 97.851562 C 322.652344 97.636719 322.53125 97.410156 322.433594 97.167969 C 322.332031 96.929688 322.257812 96.679688 322.207031 96.425781 C 322.15625 96.171875 322.132812 95.914062 322.132812 95.65625 Z M 52.824219 99.574219 L 34.140625 99.574219 C 33.621094 99.574219 33.121094 99.472656 32.640625 99.273438 C 32.15625 99.074219 31.734375 98.792969 31.367188 98.425781 C 30.996094 98.058594 30.714844 97.632812 30.515625 97.152344 C 30.316406 96.671875 30.214844 96.175781 30.214844 95.65625 C 30.214844 95.132812 30.316406 94.636719 30.515625 94.15625 C 30.714844 93.675781 30.996094 93.25 31.367188 92.882812 C 31.734375 92.515625 32.15625 92.234375 32.640625 92.035156 C 33.121094 91.835938 33.621094 91.734375 34.140625 91.734375 L 52.839844 91.734375 C 53.359375 91.734375 53.859375 91.835938 54.339844 92.035156 C 54.824219 92.234375 55.246094 92.515625 55.613281 92.882812 C 55.984375 93.25 56.265625 93.675781 56.464844 94.15625 C 56.664062 94.636719 56.765625 95.132812 56.765625 95.65625 C 56.765625 96.175781 56.664062 96.671875 56.464844 97.152344 C 56.265625 97.632812 55.984375 98.058594 55.613281 98.425781 C 55.246094 98.792969 54.824219 99.074219 54.339844 99.273438 C 53.859375 99.472656 53.359375 99.574219 52.839844 99.574219 Z M 63.996094 95.65625 C 63.996094 95.132812 64.09375 94.636719 64.292969 94.15625 C 64.492188 93.675781 64.777344 93.25 65.144531 92.882812 C 65.511719 92.515625 65.9375 92.234375 66.417969 92.035156 C 66.898438 91.835938 67.398438 91.734375 67.917969 91.734375 L 86.617188 91.734375 C 87.136719 91.734375 87.640625 91.835938 88.121094 92.035156 C 88.601562 92.234375 89.027344 92.515625 89.394531 92.882812 C 89.761719 93.25 90.046875 93.675781 90.246094 94.15625 C 90.445312 94.636719 90.542969 95.132812 90.542969 95.65625 C 90.542969 96.175781 90.445312 96.671875 90.246094 97.152344 C 90.046875 97.632812 89.761719 98.058594 89.394531 98.425781 C 89.027344 98.792969 88.601562 99.074219 88.121094 99.273438 C 87.640625 99.472656 87.136719 99.574219 86.617188 99.574219 L 67.933594 99.574219 C 67.414062 99.574219 66.914062 99.472656 66.433594 99.273438 C 65.953125 99.078125 65.527344 98.792969 65.160156 98.425781 C 64.792969 98.058594 64.507812 97.636719 64.308594 97.15625 C 64.109375 96.675781 64.011719 96.175781 64.011719 95.660156 Z M 97.796875 95.65625 C 97.796875 95.132812 97.894531 94.636719 98.09375 94.15625 C 98.292969 93.675781 98.578125 93.25 98.945312 92.882812 C 99.3125 92.515625 99.738281 92.234375 100.21875 92.035156 C 100.699219 91.835938 101.199219 91.734375 101.722656 91.734375 L 120.414062 91.734375 C 120.933594 91.734375 121.433594 91.835938 121.914062 92.035156 C 122.394531 92.234375 122.820312 92.515625 123.1875 92.882812 C 123.554688 93.25 123.839844 93.675781 124.039062 94.15625 C 124.238281 94.636719 124.335938 95.132812 124.335938 95.65625 C 124.335938 96.175781 124.238281 96.671875 124.039062 97.152344 C 123.839844 97.632812 123.554688 98.058594 123.1875 98.425781 C 122.820312 98.792969 122.394531 99.074219 121.914062 99.273438 C 121.433594 99.472656 120.933594 99.574219 120.414062 99.574219 L 101.738281 99.574219 C 101.21875 99.574219 100.714844 99.472656 100.234375 99.273438 C 99.753906 99.078125 99.332031 98.792969 98.964844 98.425781 C 98.59375 98.058594 98.3125 97.636719 98.113281 97.15625 C 97.914062 96.675781 97.8125 96.175781 97.8125 95.660156 Z M 131.589844 95.65625 C 131.589844 95.132812 131.691406 94.636719 131.890625 94.15625 C 132.089844 93.675781 132.371094 93.25 132.742188 92.882812 C 133.109375 92.515625 133.53125 92.234375 134.015625 92.035156 C 134.496094 91.835938 134.996094 91.734375 135.515625 91.734375 L 154.214844 91.734375 C 154.734375 91.734375 155.234375 91.835938 155.714844 92.035156 C 156.199219 92.234375 156.621094 92.515625 156.988281 92.882812 C 157.359375 93.25 157.640625 93.675781 157.839844 94.15625 C 158.039062 94.636719 158.140625 95.132812 158.140625 95.65625 C 158.140625 96.175781 158.039062 96.671875 157.839844 97.152344 C 157.640625 97.632812 157.359375 98.058594 156.988281 98.425781 C 156.621094 98.792969 156.199219 99.074219 155.714844 99.273438 C 155.234375 99.472656 154.734375 99.574219 154.214844 99.574219 L 135.53125 99.574219 C 135.011719 99.574219 134.511719 99.472656 134.03125 99.273438 C 133.550781 99.078125 133.125 98.792969 132.757812 98.425781 C 132.390625 98.058594 132.105469 97.636719 131.90625 97.15625 C 131.707031 96.675781 131.605469 96.175781 131.605469 95.660156 Z M 165.386719 95.65625 C 165.386719 95.132812 165.484375 94.636719 165.683594 94.15625 C 165.882812 93.675781 166.167969 93.25 166.535156 92.882812 C 166.902344 92.515625 167.328125 92.234375 167.808594 92.035156 C 168.289062 91.835938 168.789062 91.734375 169.308594 91.734375 L 188.007812 91.734375 C 188.527344 91.734375 189.03125 91.835938 189.511719 92.035156 C 189.992188 92.234375 190.417969 92.515625 190.785156 92.882812 C 191.152344 93.25 191.4375 93.675781 191.636719 94.15625 C 191.835938 94.636719 191.933594 95.132812 191.933594 95.65625 C 191.933594 96.175781 191.835938 96.671875 191.636719 97.152344 C 191.4375 97.632812 191.152344 98.058594 190.785156 98.425781 C 190.417969 98.792969 189.992188 99.074219 189.511719 99.273438 C 189.03125 99.472656 188.527344 99.574219 188.007812 99.574219 L 169.324219 99.574219 C 168.804688 99.574219 168.304688 99.472656 167.824219 99.273438 C 167.34375 99.078125 166.917969 98.792969 166.550781 98.425781 C 166.183594 98.058594 165.898438 97.636719 165.699219 97.15625 C 165.5 96.675781 165.402344 96.175781 165.402344 95.660156 Z M 99.890625 287.003906 L 284.367188 287.003906 C 284.886719 287.003906 285.386719 286.90625 285.871094 286.707031 C 286.351562 286.507812 286.773438 286.222656 287.144531 285.855469 C 287.511719 285.488281 287.792969 285.066406 287.992188 284.585938 C 288.191406 284.105469 288.292969 283.605469 288.292969 283.085938 L 288.292969 151.207031 C 288.292969 150.6875 288.191406 150.1875 287.992188 149.710938 C 287.792969 149.230469 287.511719 148.804688 287.144531 148.4375 C 286.773438 148.070312 286.351562 147.789062 285.871094 147.589844 C 285.386719 147.390625 284.886719 147.289062 284.367188 147.289062 L 99.890625 147.289062 C 99.371094 147.289062 98.871094 147.390625 98.390625 147.589844 C 97.910156 147.789062 97.484375 148.070312 97.117188 148.4375 C 96.75 148.804688 96.464844 149.230469 96.265625 149.710938 C 96.066406 150.1875 95.96875 150.6875 95.96875 151.207031 L 95.96875 283.085938 C 95.96875 283.605469 96.066406 284.105469 96.265625 284.585938 C 96.464844 285.066406 96.75 285.488281 97.117188 285.855469 C 97.484375 286.222656 97.910156 286.507812 98.390625 286.707031 C 98.871094 286.90625 99.371094 287.003906 99.890625 287.003906 Z M 103.816406 155.128906 L 280.441406 155.128906 L 280.441406 279.167969 L 103.816406 279.167969 Z M 240.605469 207.878906 C 240.605469 207.214844 240.445312 206.59375 240.128906 206.007812 C 239.808594 205.425781 239.371094 204.953125 238.8125 204.59375 L 194.265625 175.789062 C 193.949219 175.585938 193.605469 175.429688 193.242188 175.320312 C 192.878906 175.214844 192.507812 175.160156 192.128906 175.160156 C 191.75 175.160156 191.378906 175.214844 191.015625 175.320312 C 190.652344 175.429688 190.3125 175.585938 189.996094 175.789062 L 145.445312 204.59375 C 145.171875 204.769531 144.921875 204.980469 144.699219 205.21875 C 144.476562 205.457031 144.289062 205.722656 144.128906 206.007812 C 143.972656 206.296875 143.855469 206.597656 143.773438 206.914062 C 143.695312 207.234375 143.652344 207.554688 143.652344 207.882812 C 143.652344 208.207031 143.695312 208.53125 143.773438 208.847656 C 143.855469 209.164062 143.972656 209.46875 144.128906 209.753906 C 144.289062 210.042969 144.476562 210.304688 144.699219 210.546875 C 144.921875 210.785156 145.171875 210.992188 145.445312 211.171875 L 154.722656 217.171875 L 145.453125 223.140625 C 145.179688 223.316406 144.929688 223.523438 144.707031 223.765625 C 144.484375 224.003906 144.292969 224.269531 144.136719 224.554688 C 143.980469 224.84375 143.859375 225.144531 143.78125 225.464844 C 143.699219 225.78125 143.660156 226.101562 143.660156 226.429688 C 143.660156 226.757812 143.699219 227.082031 143.78125 227.398438 C 143.859375 227.714844 143.980469 228.015625 144.136719 228.304688 C 144.292969 228.59375 144.484375 228.855469 144.707031 229.097656 C 144.929688 229.335938 145.179688 229.542969 145.453125 229.722656 L 190.003906 258.519531 C 190.320312 258.726562 190.660156 258.882812 191.023438 258.988281 C 191.386719 259.097656 191.757812 259.152344 192.136719 259.152344 C 192.515625 259.152344 192.886719 259.097656 193.25 258.988281 C 193.613281 258.882812 193.957031 258.726562 194.273438 258.519531 L 238.8125 229.710938 C 239.089844 229.53125 239.339844 229.324219 239.5625 229.085938 C 239.785156 228.84375 239.972656 228.582031 240.132812 228.292969 C 240.289062 228.003906 240.40625 227.703125 240.488281 227.386719 C 240.570312 227.070312 240.609375 226.746094 240.609375 226.417969 C 240.609375 226.089844 240.570312 225.769531 240.488281 225.453125 C 240.40625 225.132812 240.289062 224.832031 240.132812 224.542969 C 239.972656 224.257812 239.785156 223.992188 239.5625 223.753906 C 239.339844 223.511719 239.089844 223.304688 238.8125 223.128906 L 229.539062 217.171875 L 238.8125 211.1875 C 239.375 210.824219 239.8125 210.347656 240.132812 209.761719 C 240.449219 209.175781 240.605469 208.546875 240.605469 207.878906 Z M 192.128906 183.75 L 229.457031 207.878906 L 192.128906 231.980469 L 154.804688 207.878906 Z M 229.449219 226.421875 L 192.128906 250.550781 L 154.8125 226.421875 L 161.949219 221.828125 L 190 239.933594 C 190.648438 240.351562 191.359375 240.5625 192.128906 240.5625 C 192.902344 240.5625 193.613281 240.351562 194.261719 239.933594 L 222.308594 221.828125 Z M 229.449219 226.421875 " fill-opacity="1" fill-rule="nonzero"/></g></svg>