<svg xmlns="http://www.w3.org/2000/svg" xmlns:xlink="http://www.w3.org/1999/xlink" width="512" zoomAndPan="magnify" viewBox="0 0 384 383.999986" height="512" preserveAspectRatio="xMidYMid meet" version="1.0"><defs><clipPath id="eadaa6cfd7"><path d="M 22.277344 38.398438 L 362.027344 38.398438 L 362.027344 277 L 22.277344 277 Z M 22.277344 38.398438 " clip-rule="nonzero"/></clipPath><clipPath id="4e2c457cec"><path d="M 22.277344 224 L 362.027344 224 L 362.027344 232 L 22.277344 232 Z M 22.277344 224 " clip-rule="nonzero"/></clipPath><clipPath id="99e8c9d67e"><path d="M 102 303 L 282 303 L 282 345.898438 L 102 345.898438 Z M 102 303 " clip-rule="nonzero"/></clipPath></defs><g clip-path="url(#eadaa6cfd7)"><path fill="#000000" d="M 342.925781 276.804688 L 41.378906 276.804688 C 30.84375 276.804688 22.277344 268.238281 22.277344 257.703125 L 22.277344 57.734375 C 22.277344 47.203125 30.84375 38.632812 41.378906 38.632812 L 342.925781 38.632812 C 353.457031 38.632812 362.027344 47.203125 362.027344 57.734375 L 362.027344 257.703125 C 362.027344 268.238281 353.457031 276.804688 342.925781 276.804688 Z M 41.378906 46.355469 C 35.101562 46.355469 29.996094 51.460938 29.996094 57.734375 L 29.996094 257.703125 C 29.996094 263.976562 35.101562 269.082031 41.378906 269.082031 L 342.925781 269.082031 C 349.199219 269.082031 354.304688 263.976562 354.304688 257.703125 L 354.304688 57.734375 C 354.304688 51.460938 349.199219 46.355469 342.925781 46.355469 Z M 41.378906 46.355469 " fill-opacity="1" fill-rule="nonzero"/></g><g clip-path="url(#4e2c457cec)"><path fill="#000000" d="M 358.164062 231.726562 L 26.136719 231.726562 C 24.003906 231.726562 22.277344 230 22.277344 227.867188 C 22.277344 225.734375 24.003906 224.007812 26.136719 224.007812 L 358.164062 224.007812 C 360.296875 224.007812 362.027344 225.734375 362.027344 227.867188 C 362.027344 230 360.296875 231.726562 358.164062 231.726562 Z M 358.164062 231.726562 " fill-opacity="1" fill-rule="nonzero"/></g><path fill="#000000" d="M 167.679688 311.191406 C 165.550781 311.191406 163.820312 309.460938 163.820312 307.328125 L 163.820312 272.941406 C 163.820312 270.808594 165.550781 269.078125 167.679688 269.078125 C 169.8125 269.078125 171.542969 270.808594 171.542969 272.941406 L 171.542969 307.328125 C 171.542969 309.460938 169.8125 311.191406 167.679688 311.191406 Z M 167.679688 311.191406 " fill-opacity="1" fill-rule="nonzero"/><path fill="#000000" d="M 216.621094 311.191406 C 214.488281 311.191406 212.761719 309.460938 212.761719 307.328125 L 212.761719 272.941406 C 212.761719 270.808594 214.488281 269.078125 216.621094 269.078125 C 218.753906 269.078125 220.480469 270.808594 220.480469 272.941406 L 220.480469 307.328125 C 220.480469 309.460938 218.753906 311.191406 216.621094 311.191406 Z M 216.621094 311.191406 " fill-opacity="1" fill-rule="nonzero"/><g clip-path="url(#99e8c9d67e)"><path fill="#000000" d="M 278.113281 345.667969 L 106.1875 345.667969 C 104.054688 345.667969 102.328125 343.941406 102.328125 341.808594 C 102.328125 320.667969 119.523438 303.46875 140.660156 303.46875 L 243.644531 303.46875 C 264.78125 303.46875 281.976562 320.667969 281.976562 341.808594 C 281.976562 343.941406 280.246094 345.667969 278.113281 345.667969 Z M 110.289062 337.945312 L 274.011719 337.945312 C 272.109375 322.882812 259.214844 311.191406 243.644531 311.191406 L 140.660156 311.191406 C 125.085938 311.191406 112.195312 322.882812 110.289062 337.945312 Z M 110.289062 337.945312 " fill-opacity="1" fill-rule="nonzero"/></g><path fill="#000000" d="M 255.105469 151.828125 L 204.433594 151.828125 C 200.203125 151.828125 196.757812 148.382812 196.757812 144.148438 L 196.757812 100.789062 C 196.757812 96.554688 200.203125 93.109375 204.433594 93.109375 L 255.105469 93.109375 C 257.238281 93.109375 258.96875 94.839844 258.96875 96.972656 L 258.96875 147.964844 C 258.96875 150.097656 257.238281 151.828125 255.105469 151.828125 Z M 204.433594 100.832031 L 204.480469 144.148438 L 251.246094 144.105469 L 251.246094 100.832031 Z M 204.433594 100.832031 " fill-opacity="1" fill-rule="nonzero"/><path fill="#000000" d="M 200.617188 140.328125 L 189.683594 140.328125 C 185.453125 140.328125 182.007812 136.882812 182.007812 132.648438 L 182.007812 113.472656 C 182.007812 109.242188 185.449219 105.796875 189.683594 105.796875 L 200.617188 105.796875 C 202.75 105.796875 204.480469 107.523438 204.480469 109.65625 L 204.480469 136.464844 C 204.480469 138.597656 202.75 140.328125 200.617188 140.328125 Z M 189.683594 113.519531 L 189.726562 132.648438 L 196.757812 132.621094 L 196.757812 113.519531 Z M 189.683594 113.519531 " fill-opacity="1" fill-rule="nonzero"/><path fill="#000000" d="M 295.335938 164.644531 C 294.542969 164.644531 293.75 164.519531 292.980469 164.273438 L 253.917969 151.640625 C 252.328125 151.125 251.246094 149.640625 251.246094 147.964844 L 251.246094 96.972656 C 251.246094 95.296875 252.324219 93.8125 253.917969 93.300781 L 292.980469 80.664062 C 295.3125 79.910156 297.882812 80.320312 299.859375 81.761719 C 301.839844 83.203125 303.019531 85.523438 303.019531 87.96875 L 303.019531 156.96875 C 303.019531 159.414062 301.839844 161.738281 299.859375 163.175781 C 298.535156 164.140625 296.941406 164.644531 295.335938 164.644531 Z M 258.96875 145.15625 L 295.300781 156.90625 L 295.300781 87.96875 L 258.96875 99.777344 Z M 258.96875 145.15625 " fill-opacity="1" fill-rule="nonzero"/><path fill="#000000" d="M 238.914062 190.070312 L 226.417969 190.070312 C 223.042969 190.070312 220.101562 187.910156 219.09375 184.691406 L 207.933594 149.121094 C 207.566406 147.949219 207.777344 146.671875 208.503906 145.679688 C 209.230469 144.6875 210.386719 144.105469 211.617188 144.105469 L 232.113281 144.105469 C 233.800781 144.105469 235.289062 145.199219 235.796875 146.808594 L 246.238281 180.09375 C 246.976562 182.453125 246.5625 184.945312 245.101562 186.9375 C 243.636719 188.929688 241.382812 190.070312 238.914062 190.070312 Z M 216.875 151.828125 L 226.460938 182.378906 L 238.851562 182.347656 L 229.277344 151.828125 Z M 216.875 151.828125 " fill-opacity="1" fill-rule="nonzero"/><path fill="#000000" d="M 312.046875 140.988281 C 310.886719 140.988281 309.742188 140.46875 308.980469 139.476562 C 307.679688 137.789062 308 135.363281 309.691406 134.0625 C 312.84375 131.640625 314.652344 127.976562 314.652344 124.003906 C 314.652344 120.09375 312.886719 116.460938 309.8125 114.039062 C 308.136719 112.71875 307.847656 110.292969 309.167969 108.617188 C 310.488281 106.941406 312.917969 106.65625 314.589844 107.972656 C 319.535156 111.871094 322.371094 117.714844 322.371094 124.003906 C 322.371094 130.394531 319.464844 136.292969 314.394531 140.1875 C 313.691406 140.726562 312.863281 140.988281 312.046875 140.988281 Z M 312.046875 140.988281 " fill-opacity="1" fill-rule="nonzero"/><path fill="#000000" d="M 320.859375 152.878906 C 319.699219 152.878906 318.554688 152.359375 317.796875 151.371094 C 316.496094 149.679688 316.8125 147.253906 318.503906 145.957031 C 325.402344 140.65625 329.359375 132.636719 329.359375 123.949219 C 329.359375 115.394531 325.5 107.449219 318.773438 102.148438 C 317.097656 100.828125 316.808594 98.398438 318.128906 96.726562 C 319.449219 95.050781 321.875 94.761719 323.550781 96.082031 C 332.148438 102.855469 337.078125 113.011719 337.078125 123.949219 C 337.078125 135.054688 332.023438 145.308594 323.207031 152.082031 C 322.507812 152.617188 321.679688 152.878906 320.859375 152.878906 Z M 320.859375 152.878906 " fill-opacity="1" fill-rule="nonzero"/><path fill="#000000" d="M 147.855469 109.703125 L 54.171875 109.703125 C 52.039062 109.703125 50.3125 107.972656 50.3125 105.839844 L 50.3125 76.273438 C 50.3125 74.140625 52.039062 72.414062 54.171875 72.414062 L 147.855469 72.414062 C 149.988281 72.414062 151.714844 74.140625 151.714844 76.273438 L 151.714844 105.839844 C 151.714844 107.972656 149.988281 109.703125 147.855469 109.703125 Z M 58.035156 101.980469 L 143.992188 101.980469 L 143.992188 80.132812 L 58.035156 80.132812 Z M 58.035156 101.980469 " fill-opacity="1" fill-rule="nonzero"/><path fill="#000000" d="M 147.855469 133.234375 L 54.171875 133.234375 C 52.039062 133.234375 50.3125 131.507812 50.3125 129.375 C 50.3125 127.242188 52.039062 125.511719 54.171875 125.511719 L 147.855469 125.511719 C 149.988281 125.511719 151.714844 127.242188 151.714844 129.375 C 151.714844 131.507812 149.988281 133.234375 147.855469 133.234375 Z M 147.855469 133.234375 " fill-opacity="1" fill-rule="nonzero"/><path fill="#000000" d="M 147.855469 154.804688 L 54.171875 154.804688 C 52.039062 154.804688 50.3125 153.078125 50.3125 150.945312 C 50.3125 148.8125 52.039062 147.085938 54.171875 147.085938 L 147.855469 147.085938 C 149.988281 147.085938 151.714844 148.8125 151.714844 150.945312 C 151.714844 153.078125 149.988281 154.804688 147.855469 154.804688 Z M 147.855469 154.804688 " fill-opacity="1" fill-rule="nonzero"/><path fill="#000000" d="M 147.855469 176.375 L 54.171875 176.375 C 52.039062 176.375 50.3125 174.648438 50.3125 172.515625 C 50.3125 170.382812 52.039062 168.652344 54.171875 168.652344 L 147.855469 168.652344 C 149.988281 168.652344 151.714844 170.382812 151.714844 172.515625 C 151.714844 174.648438 149.988281 176.375 147.855469 176.375 Z M 147.855469 176.375 " fill-opacity="1" fill-rule="nonzero"/><path fill="#000000" d="M 147.855469 197.945312 L 54.171875 197.945312 C 52.039062 197.945312 50.3125 196.21875 50.3125 194.085938 C 50.3125 191.953125 52.039062 190.226562 54.171875 190.226562 L 147.855469 190.226562 C 149.988281 190.226562 151.714844 191.953125 151.714844 194.085938 C 151.714844 196.21875 149.988281 197.945312 147.855469 197.945312 Z M 147.855469 197.945312 " fill-opacity="1" fill-rule="nonzero"/></svg>