<svg xmlns="http://www.w3.org/2000/svg" xmlns:xlink="http://www.w3.org/1999/xlink" width="512" zoomAndPan="magnify" viewBox="0 0 384 383.999986" height="512" preserveAspectRatio="xMidYMid meet" version="1.0"><defs><clipPath id="7a782d4cdb"><path d="M 85 81.445312 L 301.816406 81.445312 L 301.816406 366.832031 L 85 366.832031 Z M 85 81.445312 " clip-rule="nonzero"/></clipPath><clipPath id="5049179926"><path d="M 82.085938 97 L 123 97 L 123 112 L 82.085938 112 Z M 82.085938 97 " clip-rule="nonzero"/></clipPath></defs><g clip-path="url(#7a782d4cdb)"><path fill="#ffffff" d="M 286.78125 304.9375 L 286.789062 304.9375 Z M 112.820312 224.9375 C 110.0625 224.9375 107.289062 225.8125 104.9375 227.613281 C 100.105469 231.304688 98.484375 237.976562 101.074219 243.476562 C 110.667969 263.8125 128.65625 300.597656 141.324219 318.402344 L 141.597656 318.785156 C 156.375 339.785156 180.472656 352.367188 206.078125 352.472656 L 206.417969 352.472656 C 222.621094 352.472656 238.199219 347.609375 251.46875 338.410156 C 264.375 329.457031 274.246094 317.046875 280.023438 302.515625 L 280.570312 300.816406 C 285.140625 286.035156 287.457031 265.859375 287.457031 240.847656 L 287.460938 207.542969 C 287.460938 201.980469 282.941406 197.460938 277.378906 197.460938 L 276.933594 197.460938 C 271.0625 197.460938 266.277344 202.179688 266.238281 208 L 266.238281 238.972656 C 266.238281 242.941406 263.019531 246.15625 259.058594 246.15625 C 255.09375 246.15625 251.878906 242.941406 251.878906 238.972656 L 251.878906 208.070312 C 251.878906 208.03125 251.878906 207.988281 251.878906 207.949219 L 251.878906 191.839844 C 251.878906 185.992188 247.121094 181.230469 241.269531 181.230469 C 235.417969 181.230469 230.65625 185.992188 230.65625 191.839844 L 230.65625 223.992188 C 230.65625 227.957031 227.441406 231.171875 223.476562 231.171875 C 219.511719 231.171875 216.300781 227.957031 216.300781 223.992188 L 216.300781 179.359375 C 216.300781 173.503906 211.539062 168.746094 205.691406 168.746094 C 199.835938 168.746094 195.078125 173.503906 195.078125 179.359375 L 194.917969 213.726562 C 194.898438 217.679688 191.691406 220.871094 187.742188 220.871094 C 187.734375 220.871094 187.730469 220.871094 187.726562 220.871094 C 183.769531 220.863281 180.566406 217.65625 180.558594 213.699219 L 180.441406 106.105469 C 180.441406 100.539062 175.917969 96.015625 170.363281 96.015625 L 169.914062 96.015625 C 164.015625 96.015625 159.214844 100.777344 159.214844 106.628906 L 159.214844 253.019531 C 159.214844 256.035156 157.335938 258.726562 154.507812 259.761719 C 151.679688 260.796875 148.503906 259.960938 146.5625 257.664062 L 122.738281 229.535156 C 120.175781 226.507812 116.515625 224.9375 112.820312 224.9375 Z M 206.40625 366.832031 L 206.035156 366.832031 C 175.773438 366.707031 147.304688 351.84375 129.875 327.074219 L 129.621094 326.71875 C 116.3125 308.011719 97.886719 270.371094 88.089844 249.601562 C 82.632812 238.023438 86.050781 223.980469 96.21875 216.207031 C 107.804688 207.347656 124.265625 209.125 133.691406 220.253906 L 144.859375 233.441406 L 144.859375 106.628906 C 144.859375 92.855469 156.097656 81.65625 169.914062 81.65625 L 170.363281 81.65625 C 183.832031 81.65625 194.792969 92.621094 194.792969 106.09375 L 194.851562 156.859375 C 198.132812 155.273438 201.808594 154.382812 205.691406 154.382812 C 216.207031 154.382812 225.230469 160.925781 228.902344 170.15625 C 232.546875 168.066406 236.773438 166.871094 241.269531 166.871094 C 252.972656 166.871094 262.820312 174.964844 265.507812 185.851562 C 268.9375 184.09375 272.824219 183.101562 276.933594 183.101562 L 277.378906 183.101562 C 290.855469 183.101562 301.816406 194.066406 301.816406 207.542969 L 301.816406 240.847656 C 301.816406 267.324219 299.277344 288.945312 294.269531 305.109375 C 294.261719 305.132812 294.253906 305.160156 294.246094 305.183594 L 293.613281 307.140625 C 293.566406 307.285156 293.515625 307.429688 293.460938 307.570312 C 286.652344 324.847656 274.960938 339.589844 259.648438 350.210938 C 243.964844 361.082031 225.558594 366.832031 206.40625 366.832031 " fill-opacity="1" fill-rule="nonzero"/></g><g clip-path="url(#5049179926)"><path fill="#ffffff" d="M 115.480469 111.363281 L 89.265625 111.363281 C 85.296875 111.363281 82.085938 108.148438 82.085938 104.183594 C 82.085938 100.21875 85.296875 97.003906 89.265625 97.003906 L 115.480469 97.003906 C 119.445312 97.003906 122.660156 100.21875 122.660156 104.183594 C 122.660156 108.148438 119.445312 111.363281 115.480469 111.363281 " fill-opacity="1" fill-rule="nonzero"/></g><path fill="#ffffff" d="M 132.382812 72.945312 C 130.550781 72.945312 128.71875 72.25 127.316406 70.855469 L 108.746094 52.34375 C 105.9375 49.546875 105.929688 45 108.730469 42.191406 C 111.527344 39.382812 116.074219 39.378906 118.878906 42.175781 L 137.453125 60.683594 C 140.257812 63.480469 140.265625 68.027344 137.46875 70.835938 C 136.066406 72.246094 134.226562 72.945312 132.382812 72.945312 " fill-opacity="1" fill-rule="nonzero"/><path fill="#ffffff" d="M 171.472656 57.671875 C 167.519531 57.671875 164.308594 54.472656 164.292969 50.515625 L 164.203125 24.296875 C 164.191406 20.328125 167.390625 17.105469 171.355469 17.09375 C 171.363281 17.09375 171.371094 17.09375 171.382812 17.09375 C 175.335938 17.09375 178.546875 20.289062 178.5625 24.25 L 178.648438 50.46875 C 178.664062 54.433594 175.460938 57.65625 171.496094 57.671875 C 171.488281 57.671875 171.480469 57.671875 171.472656 57.671875 " fill-opacity="1" fill-rule="nonzero"/><path fill="#ffffff" d="M 209.941406 74.445312 C 208.113281 74.445312 206.289062 73.753906 204.890625 72.367188 C 202.074219 69.578125 202.046875 65.035156 204.835938 62.21875 L 223.28125 43.578125 C 226.070312 40.761719 230.613281 40.738281 233.433594 43.53125 C 236.25 46.316406 236.273438 50.863281 233.484375 53.679688 L 215.042969 72.316406 C 213.636719 73.734375 211.789062 74.445312 209.941406 74.445312 " fill-opacity="1" fill-rule="nonzero"/><path fill="#ffffff" d="M 225.347656 113.484375 C 221.402344 113.484375 218.195312 110.304688 218.167969 106.355469 C 218.140625 102.390625 221.332031 99.152344 225.300781 99.125 L 251.515625 98.949219 C 251.53125 98.949219 251.550781 98.945312 251.566406 98.945312 C 255.507812 98.945312 258.714844 102.128906 258.742188 106.078125 C 258.769531 110.039062 255.578125 113.277344 251.613281 113.304688 L 225.394531 113.484375 C 225.378906 113.484375 225.363281 113.484375 225.347656 113.484375 " fill-opacity="1" fill-rule="nonzero"/></svg>