<svg xmlns="http://www.w3.org/2000/svg" xmlns:xlink="http://www.w3.org/1999/xlink" width="512" zoomAndPan="magnify" viewBox="0 0 384 383.999986" height="512" preserveAspectRatio="xMidYMid meet" version="1.0"><defs><clipPath id="638e54f844"><path d="M 117 108 L 303 108 L 303 363.1875 L 117 363.1875 Z M 117 108 " clip-rule="nonzero"/></clipPath></defs><path fill="#231f20" d="M 62.613281 222.347656 C 61.269531 222.347656 59.925781 222.414062 58.589844 222.546875 C 57.25 222.675781 55.921875 222.875 54.605469 223.136719 C 53.285156 223.398438 51.984375 223.726562 50.695312 224.117188 C 49.410156 224.507812 48.144531 224.957031 46.902344 225.472656 C 45.664062 225.988281 44.449219 226.5625 43.261719 227.195312 C 42.078125 227.828125 40.925781 228.519531 39.808594 229.265625 C 38.691406 230.015625 37.613281 230.8125 36.574219 231.667969 C 35.53125 232.519531 34.539062 233.421875 33.585938 234.371094 C 32.636719 235.324219 31.734375 236.320312 30.882812 237.359375 C 30.03125 238.398438 29.230469 239.476562 28.484375 240.59375 C 27.734375 241.710938 27.046875 242.863281 26.410156 244.050781 C 25.777344 245.238281 25.203125 246.449219 24.691406 247.691406 C 24.175781 248.933594 23.722656 250.199219 23.332031 251.488281 C 22.941406 252.773438 22.617188 254.078125 22.355469 255.394531 C 22.089844 256.714844 21.894531 258.042969 21.761719 259.378906 C 21.632812 260.71875 21.566406 262.058594 21.566406 263.40625 C 21.566406 264.75 21.632812 266.089844 21.761719 267.429688 C 21.894531 268.769531 22.089844 270.097656 22.355469 271.414062 C 22.617188 272.734375 22.941406 274.035156 23.332031 275.324219 C 23.722656 276.609375 24.175781 277.875 24.691406 279.117188 C 25.203125 280.359375 25.777344 281.574219 26.410156 282.757812 C 27.046875 283.945312 27.734375 285.097656 28.484375 286.214844 C 29.230469 287.332031 30.03125 288.414062 30.882812 289.453125 C 31.734375 290.492188 32.636719 291.484375 33.585938 292.4375 C 34.539062 293.386719 35.53125 294.289062 36.574219 295.144531 C 37.613281 295.996094 38.691406 296.796875 39.808594 297.542969 C 40.925781 298.289062 42.078125 298.980469 43.261719 299.613281 C 44.449219 300.25 45.664062 300.824219 46.902344 301.335938 C 48.144531 301.851562 49.410156 302.304688 50.695312 302.695312 C 51.984375 303.085938 53.285156 303.410156 54.605469 303.671875 C 55.921875 303.9375 57.25 304.132812 58.589844 304.265625 C 59.925781 304.398438 61.269531 304.460938 62.613281 304.460938 C 63.957031 304.460938 65.296875 304.398438 66.636719 304.265625 C 67.972656 304.132812 69.300781 303.9375 70.621094 303.671875 C 71.9375 303.410156 73.242188 303.085938 74.527344 302.695312 C 75.8125 302.304688 77.078125 301.851562 78.320312 301.335938 C 79.5625 300.824219 80.777344 300.25 81.960938 299.613281 C 83.148438 298.980469 84.300781 298.289062 85.417969 297.542969 C 86.535156 296.796875 87.613281 295.996094 88.652344 295.144531 C 89.691406 294.289062 90.6875 293.386719 91.636719 292.4375 C 92.585938 291.484375 93.488281 290.492188 94.34375 289.453125 C 95.195312 288.414062 95.996094 287.332031 96.742188 286.214844 C 97.488281 285.097656 98.179688 283.945312 98.8125 282.757812 C 99.445312 281.574219 100.019531 280.359375 100.535156 279.117188 C 101.050781 277.875 101.5 276.609375 101.890625 275.324219 C 102.28125 274.035156 102.609375 272.734375 102.871094 271.414062 C 103.132812 270.097656 103.328125 268.769531 103.460938 267.429688 C 103.59375 266.089844 103.660156 264.75 103.660156 263.40625 C 103.65625 262.0625 103.589844 260.71875 103.457031 259.382812 C 103.324219 258.046875 103.125 256.71875 102.859375 255.398438 C 102.597656 254.082031 102.269531 252.777344 101.878906 251.492188 C 101.488281 250.207031 101.035156 248.945312 100.519531 247.703125 C 100.003906 246.460938 99.429688 245.246094 98.796875 244.0625 C 98.160156 242.878906 97.46875 241.726562 96.722656 240.609375 C 95.976562 239.492188 95.175781 238.414062 94.324219 237.375 C 93.472656 236.335938 92.570312 235.339844 91.621094 234.390625 C 90.667969 233.441406 89.675781 232.539062 88.636719 231.683594 C 87.597656 230.832031 86.519531 230.03125 85.402344 229.285156 C 84.285156 228.539062 83.136719 227.847656 81.949219 227.210938 C 80.765625 226.578125 79.550781 226.003906 78.3125 225.488281 C 77.070312 224.972656 75.804688 224.519531 74.519531 224.128906 C 73.234375 223.738281 71.933594 223.410156 70.617188 223.144531 C 69.296875 222.882812 67.972656 222.683594 66.632812 222.550781 C 65.296875 222.417969 63.957031 222.347656 62.613281 222.347656 Z M 62.613281 298.621094 C 61.457031 298.621094 60.304688 298.566406 59.15625 298.453125 C 58.007812 298.339844 56.867188 298.167969 55.738281 297.945312 C 54.605469 297.71875 53.484375 297.4375 52.382812 297.105469 C 51.277344 296.769531 50.191406 296.378906 49.125 295.9375 C 48.058594 295.496094 47.015625 295.003906 46 294.457031 C 44.980469 293.914062 43.992188 293.320312 43.03125 292.679688 C 42.074219 292.039062 41.148438 291.351562 40.253906 290.617188 C 39.363281 289.886719 38.507812 289.113281 37.691406 288.296875 C 36.875 287.480469 36.101562 286.625 35.371094 285.730469 C 34.636719 284.839844 33.953125 283.914062 33.308594 282.953125 C 32.667969 281.992188 32.078125 281.003906 31.53125 279.984375 C 30.988281 278.964844 30.496094 277.925781 30.054688 276.855469 C 29.613281 275.789062 29.226562 274.703125 28.890625 273.601562 C 28.554688 272.496094 28.277344 271.375 28.050781 270.242188 C 27.824219 269.113281 27.65625 267.96875 27.542969 266.820312 C 27.429688 265.671875 27.375 264.519531 27.375 263.367188 C 27.375 262.210938 27.433594 261.058594 27.546875 259.910156 C 27.660156 258.761719 27.828125 257.621094 28.054688 256.488281 C 28.28125 255.355469 28.558594 254.238281 28.894531 253.132812 C 29.230469 252.027344 29.621094 250.941406 30.0625 249.875 C 30.503906 248.808594 30.996094 247.769531 31.542969 246.75 C 32.085938 245.730469 32.679688 244.742188 33.320312 243.785156 C 33.960938 242.824219 34.648438 241.898438 35.382812 241.003906 C 36.113281 240.113281 36.890625 239.257812 37.707031 238.441406 C 38.523438 237.628906 39.378906 236.851562 40.269531 236.121094 C 41.164062 235.390625 42.089844 234.703125 43.046875 234.0625 C 44.007812 233.421875 44.996094 232.828125 46.015625 232.285156 C 47.035156 231.742188 48.078125 231.246094 49.144531 230.804688 C 50.210938 230.363281 51.296875 229.976562 52.398438 229.640625 C 53.503906 229.308594 54.625 229.027344 55.753906 228.804688 C 56.886719 228.578125 58.027344 228.410156 59.175781 228.296875 C 60.324219 228.183594 61.476562 228.128906 62.632812 228.128906 C 63.785156 228.128906 64.9375 228.1875 66.085938 228.300781 C 67.234375 228.414062 68.375 228.585938 69.507812 228.8125 C 70.640625 229.039062 71.757812 229.316406 72.859375 229.652344 C 73.964844 229.988281 75.050781 230.378906 76.117188 230.820312 C 77.183594 231.265625 78.226562 231.757812 79.242188 232.300781 C 80.261719 232.847656 81.25 233.441406 82.207031 234.082031 C 83.167969 234.726562 84.09375 235.414062 84.984375 236.144531 C 85.875 236.878906 86.730469 237.652344 87.546875 238.46875 C 88.359375 239.289062 89.136719 240.140625 89.867188 241.035156 C 90.597656 241.929688 91.285156 242.855469 91.925781 243.816406 C 92.566406 244.777344 93.15625 245.765625 93.699219 246.785156 C 94.246094 247.800781 94.734375 248.84375 95.175781 249.914062 C 95.617188 250.980469 96.003906 252.066406 96.339844 253.171875 C 96.675781 254.277344 96.953125 255.394531 97.175781 256.527344 C 97.402344 257.660156 97.570312 258.800781 97.683594 259.949219 C 97.792969 261.097656 97.851562 262.25 97.847656 263.40625 C 97.847656 264.558594 97.789062 265.710938 97.675781 266.855469 C 97.558594 268.003906 97.390625 269.144531 97.164062 270.273438 C 96.9375 271.40625 96.65625 272.523438 96.320312 273.625 C 95.984375 274.730469 95.59375 275.816406 95.152344 276.878906 C 94.707031 277.945312 94.214844 278.984375 93.671875 280.003906 C 93.125 281.019531 92.53125 282.007812 91.890625 282.964844 C 91.25 283.925781 90.5625 284.847656 89.832031 285.742188 C 89.097656 286.632812 88.324219 287.484375 87.511719 288.300781 C 86.695312 289.117188 85.839844 289.890625 84.949219 290.621094 C 84.058594 291.351562 83.132812 292.039062 82.171875 292.679688 C 81.214844 293.320312 80.226562 293.914062 79.210938 294.457031 C 78.191406 295 77.152344 295.492188 76.085938 295.933594 C 75.019531 296.375 73.9375 296.765625 72.832031 297.097656 C 71.730469 297.433594 70.613281 297.714844 69.480469 297.941406 C 68.351562 298.167969 67.210938 298.335938 66.0625 298.449219 C 64.914062 298.5625 63.765625 298.621094 62.613281 298.621094 Z M 62.613281 298.621094 " fill-opacity="1" fill-rule="nonzero"/><path fill="#231f20" d="M 73.214844 239.113281 C 71.96875 238.589844 70.671875 238.328125 69.324219 238.328125 L 66.070312 238.328125 C 65.414062 238.332031 64.765625 238.394531 64.121094 238.527344 C 63.480469 238.65625 62.855469 238.847656 62.25 239.097656 C 61.644531 239.347656 61.070312 239.65625 60.523438 240.023438 C 59.980469 240.386719 59.476562 240.800781 59.011719 241.265625 C 58.546875 241.730469 58.132812 242.234375 57.769531 242.777344 C 57.40625 243.324219 57.097656 243.898438 56.84375 244.503906 C 56.59375 245.109375 56.402344 245.734375 56.273438 246.375 C 56.144531 247.019531 56.078125 247.667969 56.074219 248.324219 L 56.074219 255.9375 L 53.171875 255.9375 C 52.785156 255.9375 52.414062 256.011719 52.058594 256.160156 C 51.703125 256.304688 51.390625 256.515625 51.117188 256.789062 C 50.84375 257.0625 50.632812 257.375 50.488281 257.730469 C 50.339844 258.085938 50.265625 258.457031 50.265625 258.84375 C 50.265625 259.226562 50.339844 259.597656 50.488281 259.953125 C 50.632812 260.3125 50.84375 260.625 51.117188 260.898438 C 51.390625 261.171875 51.703125 261.378906 52.058594 261.527344 C 52.414062 261.675781 52.785156 261.75 53.171875 261.75 L 56.074219 261.75 L 56.074219 285.605469 C 56.074219 285.988281 56.148438 286.359375 56.296875 286.714844 C 56.445312 287.074219 56.65625 287.386719 56.925781 287.660156 C 57.199219 287.929688 57.511719 288.140625 57.871094 288.289062 C 58.226562 288.4375 58.597656 288.511719 58.980469 288.511719 C 59.367188 288.511719 59.738281 288.4375 60.09375 288.289062 C 60.449219 288.140625 60.761719 287.929688 61.035156 287.660156 C 61.308594 287.386719 61.515625 287.074219 61.664062 286.714844 C 61.8125 286.359375 61.886719 285.988281 61.886719 285.605469 L 61.886719 261.808594 L 68.742188 261.808594 C 69.125 261.808594 69.496094 261.734375 69.851562 261.585938 C 70.210938 261.4375 70.523438 261.226562 70.796875 260.957031 C 71.066406 260.683594 71.277344 260.371094 71.425781 260.011719 C 71.574219 259.65625 71.648438 259.285156 71.648438 258.902344 C 71.648438 258.515625 71.574219 258.144531 71.425781 257.789062 C 71.277344 257.433594 71.066406 257.117188 70.796875 256.847656 C 70.523438 256.574219 70.210938 256.363281 69.851562 256.214844 C 69.496094 256.070312 69.125 255.996094 68.742188 255.996094 L 61.886719 255.996094 L 61.886719 248.382812 C 61.886719 248.109375 61.917969 247.835938 61.972656 247.566406 C 62.027344 247.300781 62.105469 247.039062 62.210938 246.785156 C 62.316406 246.53125 62.445312 246.292969 62.601562 246.066406 C 62.753906 245.835938 62.925781 245.625 63.121094 245.433594 C 63.3125 245.238281 63.523438 245.066406 63.75 244.914062 C 63.980469 244.757812 64.21875 244.628906 64.472656 244.523438 C 64.726562 244.417969 64.988281 244.339844 65.253906 244.285156 C 65.523438 244.230469 65.796875 244.199219 66.070312 244.199219 L 69.324219 244.199219 C 69.890625 244.199219 70.433594 244.316406 70.949219 244.546875 C 71.308594 244.699219 71.683594 244.773438 72.074219 244.773438 C 72.464844 244.773438 72.839844 244.703125 73.203125 244.550781 C 73.5625 244.402344 73.882812 244.191406 74.15625 243.917969 C 74.433594 243.640625 74.648438 243.324219 74.796875 242.964844 C 74.949219 242.601562 75.023438 242.226562 75.023438 241.835938 C 75.027344 241.445312 74.953125 241.070312 74.804688 240.710938 C 74.65625 240.347656 74.445312 240.03125 74.167969 239.753906 C 73.894531 239.476562 73.574219 239.265625 73.214844 239.113281 Z M 73.214844 239.113281 " fill-opacity="1" fill-rule="nonzero"/><path fill="#231f20" d="M 71.5 120.359375 C 72.84375 120.359375 74.1875 120.292969 75.523438 120.160156 C 76.863281 120.027344 78.191406 119.832031 79.507812 119.570312 C 80.828125 119.304688 82.128906 118.980469 83.417969 118.589844 C 84.703125 118.199219 85.96875 117.746094 87.210938 117.234375 C 88.453125 116.71875 89.664062 116.144531 90.851562 115.511719 C 92.035156 114.875 93.1875 114.183594 94.304688 113.4375 C 95.421875 112.691406 96.503906 111.890625 97.542969 111.039062 C 98.582031 110.183594 99.574219 109.285156 100.527344 108.332031 C 101.476562 107.382812 102.378906 106.386719 103.230469 105.347656 C 104.082031 104.308594 104.882812 103.230469 105.628906 102.109375 C 106.378906 100.992188 107.066406 99.839844 107.703125 98.65625 C 108.335938 97.46875 108.910156 96.253906 109.421875 95.011719 C 109.9375 93.769531 110.390625 92.503906 110.78125 91.21875 C 111.171875 89.933594 111.496094 88.628906 111.757812 87.308594 C 112.023438 85.992188 112.21875 84.664062 112.351562 83.324219 C 112.484375 81.988281 112.546875 80.644531 112.546875 79.300781 C 112.546875 77.957031 112.484375 76.613281 112.351562 75.277344 C 112.21875 73.9375 112.023438 72.609375 111.757812 71.289062 C 111.496094 69.972656 111.171875 68.667969 110.78125 67.382812 C 110.390625 66.09375 109.9375 64.832031 109.421875 63.589844 C 108.910156 62.347656 108.335938 61.132812 107.703125 59.945312 C 107.066406 58.761719 106.378906 57.609375 105.628906 56.488281 C 104.882812 55.371094 104.082031 54.292969 103.230469 53.253906 C 102.378906 52.214844 101.476562 51.21875 100.527344 50.269531 C 99.574219 49.316406 98.582031 48.414062 97.542969 47.5625 C 96.503906 46.710938 95.421875 45.910156 94.304688 45.164062 C 93.1875 44.414062 92.035156 43.726562 90.851562 43.089844 C 89.664062 42.457031 88.453125 41.882812 87.210938 41.367188 C 85.96875 40.855469 84.703125 40.402344 83.417969 40.011719 C 82.128906 39.621094 80.828125 39.292969 79.507812 39.03125 C 78.191406 38.769531 76.863281 38.574219 75.523438 38.441406 C 74.1875 38.308594 72.84375 38.242188 71.5 38.242188 C 70.15625 38.242188 68.816406 38.308594 67.476562 38.441406 C 66.140625 38.574219 64.8125 38.769531 63.492188 39.03125 C 62.175781 39.292969 60.871094 39.621094 59.585938 40.011719 C 58.300781 40.402344 57.035156 40.855469 55.792969 41.367188 C 54.550781 41.882812 53.335938 42.457031 52.152344 43.089844 C 50.964844 43.726562 49.816406 44.414062 48.695312 45.164062 C 47.578125 45.910156 46.5 46.710938 45.460938 47.5625 C 44.421875 48.414062 43.425781 49.316406 42.476562 50.269531 C 41.527344 51.21875 40.625 52.214844 39.773438 53.253906 C 38.917969 54.292969 38.117188 55.371094 37.371094 56.488281 C 36.625 57.609375 35.933594 58.761719 35.300781 59.945312 C 34.667969 61.132812 34.09375 62.347656 33.578125 63.589844 C 33.0625 64.832031 32.613281 66.09375 32.222656 67.382812 C 31.832031 68.667969 31.503906 69.972656 31.242188 71.289062 C 30.980469 72.609375 30.785156 73.9375 30.652344 75.277344 C 30.519531 76.613281 30.453125 77.957031 30.453125 79.300781 C 30.457031 80.644531 30.523438 81.984375 30.65625 83.324219 C 30.789062 84.660156 30.988281 85.988281 31.253906 87.304688 C 31.515625 88.625 31.84375 89.925781 32.234375 91.210938 C 32.625 92.5 33.078125 93.761719 33.59375 95.003906 C 34.109375 96.246094 34.683594 97.457031 35.316406 98.644531 C 35.953125 99.828125 36.644531 100.980469 37.390625 102.097656 C 38.136719 103.214844 38.9375 104.292969 39.789062 105.332031 C 40.640625 106.371094 41.542969 107.363281 42.492188 108.316406 C 43.445312 109.265625 44.4375 110.167969 45.476562 111.019531 C 46.515625 111.875 47.59375 112.671875 48.710938 113.421875 C 49.828125 114.167969 50.980469 114.859375 52.164062 115.492188 C 53.347656 116.128906 54.5625 116.703125 55.800781 117.21875 C 57.042969 117.730469 58.308594 118.1875 59.59375 118.578125 C 60.878906 118.96875 62.179688 119.296875 63.496094 119.558594 C 64.816406 119.824219 66.144531 120.019531 67.480469 120.15625 C 68.816406 120.289062 70.15625 120.355469 71.5 120.359375 Z M 71.5 44.054688 C 72.65625 44.054688 73.808594 44.109375 74.957031 44.222656 C 76.105469 44.335938 77.242188 44.507812 78.375 44.730469 C 79.507812 44.957031 80.625 45.238281 81.730469 45.570312 C 82.835938 45.90625 83.917969 46.296875 84.984375 46.738281 C 86.050781 47.179688 87.09375 47.671875 88.113281 48.214844 C 89.128906 48.761719 90.117188 49.351562 91.078125 49.996094 C 92.039062 50.636719 92.964844 51.324219 93.855469 52.054688 C 94.746094 52.789062 95.601562 53.5625 96.417969 54.378906 C 97.234375 55.195312 98.007812 56.046875 98.738281 56.941406 C 99.472656 57.832031 100.160156 58.757812 100.800781 59.71875 C 101.441406 60.679688 102.035156 61.667969 102.578125 62.683594 C 103.121094 63.703125 103.613281 64.746094 104.054688 65.8125 C 104.496094 66.878906 104.886719 67.964844 105.222656 69.070312 C 105.554688 70.171875 105.835938 71.292969 106.0625 72.425781 C 106.285156 73.554688 106.457031 74.695312 106.570312 75.84375 C 106.683594 76.996094 106.738281 78.144531 106.738281 79.300781 C 106.738281 80.453125 106.683594 81.605469 106.570312 82.753906 C 106.457031 83.902344 106.285156 85.042969 106.0625 86.175781 C 105.835938 87.308594 105.554688 88.425781 105.222656 89.53125 C 104.886719 90.636719 104.496094 91.722656 104.054688 92.789062 C 103.613281 93.855469 103.121094 94.898438 102.578125 95.914062 C 102.035156 96.933594 101.441406 97.921875 100.800781 98.882812 C 100.160156 99.84375 99.472656 100.769531 98.738281 101.660156 C 98.007812 102.550781 97.234375 103.40625 96.417969 104.222656 C 95.601562 105.039062 94.746094 105.8125 93.855469 106.546875 C 92.964844 107.277344 92.039062 107.964844 91.078125 108.605469 C 90.117188 109.246094 89.128906 109.839844 88.113281 110.382812 C 87.09375 110.929688 86.050781 111.421875 84.984375 111.863281 C 83.917969 112.304688 82.835938 112.695312 81.730469 113.027344 C 80.625 113.363281 79.507812 113.644531 78.375 113.871094 C 77.242188 114.09375 76.105469 114.261719 74.957031 114.375 C 73.808594 114.488281 72.65625 114.546875 71.5 114.546875 C 70.347656 114.546875 69.195312 114.488281 68.046875 114.375 C 66.898438 114.261719 65.757812 114.09375 64.625 113.871094 C 63.496094 113.644531 62.375 113.363281 61.273438 113.027344 C 60.167969 112.695312 59.082031 112.304688 58.015625 111.863281 C 56.949219 111.421875 55.910156 110.929688 54.890625 110.382812 C 53.871094 109.839844 52.882812 109.246094 51.925781 108.605469 C 50.964844 107.964844 50.039062 107.277344 49.148438 106.546875 C 48.253906 105.8125 47.402344 105.039062 46.585938 104.222656 C 45.769531 103.40625 44.996094 102.550781 44.261719 101.660156 C 43.53125 100.769531 42.84375 99.84375 42.203125 98.882812 C 41.5625 97.921875 40.96875 96.933594 40.425781 95.914062 C 39.882812 94.898438 39.386719 93.855469 38.945312 92.789062 C 38.503906 91.722656 38.117188 90.636719 37.78125 89.53125 C 37.445312 88.425781 37.167969 87.308594 36.941406 86.175781 C 36.714844 85.042969 36.546875 83.902344 36.433594 82.753906 C 36.320312 81.605469 36.265625 80.453125 36.265625 79.300781 C 36.265625 78.144531 36.324219 76.996094 36.4375 75.847656 C 36.550781 74.699219 36.71875 73.558594 36.945312 72.425781 C 37.171875 71.292969 37.453125 70.175781 37.789062 69.074219 C 38.125 67.96875 38.511719 66.882812 38.953125 65.816406 C 39.394531 64.75 39.890625 63.707031 40.433594 62.691406 C 40.976562 61.671875 41.570312 60.683594 42.210938 59.726562 C 42.851562 58.765625 43.539062 57.839844 44.273438 56.949219 C 45.003906 56.054688 45.777344 55.203125 46.59375 54.386719 C 47.410156 53.570312 48.261719 52.796875 49.15625 52.0625 C 50.046875 51.332031 50.972656 50.644531 51.929688 50.003906 C 52.890625 49.363281 53.878906 48.769531 54.894531 48.226562 C 55.914062 47.679688 56.957031 47.1875 58.019531 46.746094 C 59.085938 46.304688 60.171875 45.914062 61.277344 45.578125 C 62.378906 45.242188 63.496094 44.960938 64.628906 44.738281 C 65.761719 44.511719 66.898438 44.339844 68.046875 44.226562 C 69.195312 44.113281 70.347656 44.054688 71.5 44.054688 Z M 71.5 44.054688 " fill-opacity="1" fill-rule="nonzero"/><path fill="#231f20" d="M 55.902344 101.878906 L 87.128906 101.878906 C 87.71875 101.878906 88.304688 101.820312 88.882812 101.707031 C 89.460938 101.589844 90.019531 101.417969 90.566406 101.195312 C 91.109375 100.96875 91.625 100.691406 92.117188 100.363281 C 92.605469 100.035156 93.058594 99.664062 93.476562 99.246094 C 93.894531 98.832031 94.265625 98.378906 94.59375 97.886719 C 94.921875 97.398438 95.199219 96.878906 95.421875 96.335938 C 95.648438 95.789062 95.820312 95.230469 95.933594 94.652344 C 96.046875 94.074219 96.105469 93.488281 96.105469 92.898438 L 96.105469 65.671875 C 96.105469 65.082031 96.046875 64.5 95.929688 63.921875 C 95.8125 63.34375 95.640625 62.785156 95.414062 62.242188 C 95.1875 61.699219 94.914062 61.179688 94.585938 60.691406 C 94.257812 60.203125 93.886719 59.75 93.46875 59.332031 C 93.050781 58.914062 92.597656 58.542969 92.109375 58.214844 C 91.621094 57.886719 91.105469 57.613281 90.5625 57.386719 C 90.015625 57.160156 89.457031 56.988281 88.878906 56.871094 C 88.300781 56.753906 87.71875 56.695312 87.128906 56.695312 L 55.902344 56.695312 C 55.3125 56.695312 54.730469 56.753906 54.152344 56.871094 C 53.574219 56.988281 53.015625 57.160156 52.472656 57.386719 C 51.925781 57.613281 51.410156 57.886719 50.921875 58.214844 C 50.433594 58.542969 49.980469 58.914062 49.5625 59.332031 C 49.148438 59.75 48.773438 60.203125 48.445312 60.691406 C 48.121094 61.179688 47.84375 61.699219 47.617188 62.242188 C 47.390625 62.785156 47.21875 63.34375 47.101562 63.921875 C 46.988281 64.5 46.925781 65.082031 46.925781 65.671875 L 46.925781 92.898438 C 46.925781 93.488281 46.984375 94.074219 47.097656 94.652344 C 47.214844 95.230469 47.382812 95.789062 47.609375 96.335938 C 47.835938 96.878906 48.109375 97.398438 48.4375 97.886719 C 48.765625 98.378906 49.136719 98.832031 49.554688 99.246094 C 49.972656 99.664062 50.425781 100.035156 50.914062 100.363281 C 51.40625 100.691406 51.921875 100.96875 52.464844 101.195312 C 53.011719 101.417969 53.574219 101.589844 54.152344 101.707031 C 54.730469 101.820312 55.3125 101.878906 55.902344 101.878906 Z M 52.734375 65.671875 C 52.734375 65.253906 52.816406 64.847656 52.976562 64.460938 C 53.136719 64.074219 53.367188 63.730469 53.664062 63.433594 C 53.960938 63.136719 54.300781 62.90625 54.691406 62.746094 C 55.078125 62.585938 55.480469 62.503906 55.902344 62.503906 L 87.128906 62.503906 C 87.550781 62.503906 87.953125 62.585938 88.339844 62.746094 C 88.730469 62.90625 89.070312 63.136719 89.367188 63.433594 C 89.664062 63.730469 89.894531 64.074219 90.054688 64.460938 C 90.214844 64.847656 90.296875 65.253906 90.296875 65.671875 L 90.296875 92.898438 C 90.296875 93.320312 90.214844 93.722656 90.054688 94.109375 C 89.894531 94.5 89.664062 94.839844 89.367188 95.136719 C 89.070312 95.4375 88.730469 95.664062 88.339844 95.824219 C 87.953125 95.984375 87.550781 96.066406 87.128906 96.066406 L 55.902344 96.066406 C 55.480469 96.066406 55.078125 95.984375 54.691406 95.824219 C 54.300781 95.664062 53.960938 95.4375 53.664062 95.136719 C 53.367188 94.839844 53.136719 94.5 52.976562 94.109375 C 52.816406 93.722656 52.734375 93.320312 52.734375 92.898438 Z M 52.734375 65.671875 " fill-opacity="1" fill-rule="nonzero"/><path fill="#231f20" d="M 71.5 92.929688 C 72.335938 92.929688 73.160156 92.847656 73.976562 92.683594 C 74.796875 92.519531 75.589844 92.28125 76.359375 91.960938 C 77.128906 91.640625 77.859375 91.25 78.554688 90.789062 C 79.246094 90.324219 79.886719 89.796875 80.476562 89.207031 C 81.066406 88.621094 81.59375 87.976562 82.054688 87.285156 C 82.519531 86.589844 82.910156 85.859375 83.230469 85.089844 C 83.546875 84.320312 83.789062 83.523438 83.953125 82.707031 C 84.113281 81.890625 84.195312 81.0625 84.195312 80.230469 C 84.195312 79.394531 84.113281 78.570312 83.953125 77.753906 C 83.789062 76.933594 83.546875 76.140625 83.230469 75.371094 C 82.910156 74.601562 82.519531 73.867188 82.054688 73.175781 C 81.59375 72.480469 81.066406 71.839844 80.476562 71.25 C 79.886719 70.660156 79.246094 70.136719 78.554688 69.671875 C 77.859375 69.210938 77.128906 68.816406 76.359375 68.5 C 75.589844 68.179688 74.796875 67.9375 73.976562 67.777344 C 73.160156 67.613281 72.335938 67.53125 71.5 67.53125 C 70.667969 67.53125 69.84375 67.613281 69.023438 67.777344 C 68.207031 67.9375 67.414062 68.179688 66.644531 68.5 C 65.875 68.816406 65.140625 69.210938 64.449219 69.671875 C 63.753906 70.136719 63.113281 70.660156 62.523438 71.25 C 61.933594 71.839844 61.410156 72.480469 60.945312 73.175781 C 60.484375 73.867188 60.09375 74.601562 59.773438 75.371094 C 59.453125 76.140625 59.214844 76.933594 59.050781 77.753906 C 58.886719 78.570312 58.808594 79.394531 58.808594 80.230469 C 58.808594 81.0625 58.886719 81.890625 59.050781 82.707031 C 59.214844 83.523438 59.453125 84.320312 59.773438 85.089844 C 60.09375 85.859375 60.484375 86.589844 60.945312 87.285156 C 61.410156 87.976562 61.933594 88.621094 62.523438 89.207031 C 63.113281 89.796875 63.753906 90.324219 64.449219 90.789062 C 65.140625 91.25 65.875 91.640625 66.644531 91.960938 C 67.414062 92.28125 68.207031 92.519531 69.023438 92.683594 C 69.84375 92.847656 70.667969 92.929688 71.5 92.929688 Z M 71.5 73.34375 C 71.953125 73.34375 72.402344 73.386719 72.84375 73.476562 C 73.289062 73.5625 73.71875 73.695312 74.136719 73.867188 C 74.554688 74.039062 74.949219 74.253906 75.328125 74.503906 C 75.703125 74.753906 76.050781 75.039062 76.371094 75.359375 C 76.6875 75.679688 76.976562 76.027344 77.226562 76.402344 C 77.476562 76.78125 77.6875 77.175781 77.863281 77.59375 C 78.035156 78.011719 78.164062 78.441406 78.253906 78.886719 C 78.34375 79.332031 78.386719 79.777344 78.386719 80.230469 C 78.386719 80.683594 78.34375 81.128906 78.253906 81.574219 C 78.164062 82.015625 78.035156 82.449219 77.863281 82.867188 C 77.6875 83.285156 77.476562 83.679688 77.226562 84.054688 C 76.976562 84.433594 76.6875 84.78125 76.371094 85.101562 C 76.050781 85.417969 75.703125 85.703125 75.328125 85.957031 C 74.949219 86.207031 74.554688 86.417969 74.136719 86.59375 C 73.71875 86.765625 73.289062 86.894531 72.84375 86.984375 C 72.402344 87.074219 71.953125 87.117188 71.5 87.117188 C 71.050781 87.117188 70.601562 87.074219 70.15625 86.984375 C 69.714844 86.894531 69.285156 86.765625 68.867188 86.59375 C 68.449219 86.417969 68.050781 86.207031 67.675781 85.957031 C 67.300781 85.703125 66.953125 85.417969 66.632812 85.101562 C 66.3125 84.78125 66.027344 84.433594 65.777344 84.054688 C 65.527344 83.679688 65.3125 83.285156 65.140625 82.867188 C 64.96875 82.449219 64.835938 82.015625 64.75 81.574219 C 64.660156 81.128906 64.617188 80.683594 64.617188 80.230469 C 64.625 79.785156 64.679688 79.34375 64.773438 78.90625 C 64.867188 78.472656 65.003906 78.050781 65.183594 77.640625 C 65.359375 77.230469 65.574219 76.839844 65.828125 76.472656 C 66.078125 76.105469 66.363281 75.765625 66.683594 75.453125 C 67.003906 75.140625 67.347656 74.863281 67.722656 74.617188 C 68.09375 74.375 68.488281 74.167969 68.898438 74 C 69.3125 73.832031 69.738281 73.703125 70.175781 73.617188 C 70.613281 73.53125 71.054688 73.488281 71.5 73.488281 Z M 71.5 73.34375 " fill-opacity="1" fill-rule="nonzero"/><path fill="#231f20" d="M 87.1875 67.589844 C 87.1875 67.847656 87.140625 68.097656 87.039062 68.335938 C 86.941406 68.574219 86.800781 68.785156 86.617188 68.96875 C 86.433594 69.148438 86.226562 69.289062 85.988281 69.390625 C 85.75 69.488281 85.5 69.539062 85.242188 69.539062 C 84.984375 69.539062 84.734375 69.488281 84.496094 69.390625 C 84.257812 69.289062 84.046875 69.148438 83.867188 68.96875 C 83.683594 68.785156 83.542969 68.574219 83.445312 68.335938 C 83.34375 68.097656 83.296875 67.847656 83.296875 67.589844 C 83.296875 67.332031 83.34375 67.082031 83.445312 66.84375 C 83.542969 66.605469 83.683594 66.394531 83.867188 66.214844 C 84.046875 66.03125 84.257812 65.890625 84.496094 65.792969 C 84.734375 65.691406 84.984375 65.644531 85.242188 65.644531 C 85.5 65.644531 85.75 65.691406 85.988281 65.792969 C 86.226562 65.890625 86.433594 66.03125 86.617188 66.214844 C 86.800781 66.394531 86.941406 66.605469 87.039062 66.84375 C 87.140625 67.082031 87.1875 67.332031 87.1875 67.589844 Z M 87.1875 67.589844 " fill-opacity="1" fill-rule="nonzero"/><path fill="#231f20" d="M 365.859375 183.613281 C 365.859375 182.289062 365.796875 180.96875 365.667969 179.652344 C 365.539062 178.332031 365.347656 177.023438 365.089844 175.726562 C 364.835938 174.425781 364.519531 173.144531 364.140625 171.875 C 363.761719 170.605469 363.320312 169.359375 362.824219 168.132812 C 362.324219 166.90625 361.765625 165.707031 361.148438 164.535156 C 360.535156 163.363281 359.863281 162.222656 359.136719 161.117188 C 358.410156 160.007812 357.632812 158.9375 356.804688 157.90625 C 355.972656 156.875 355.097656 155.886719 354.171875 154.9375 C 353.246094 153.992188 352.277344 153.089844 351.265625 152.238281 C 350.253906 151.382812 349.203125 150.582031 348.113281 149.832031 C 347.023438 149.078125 345.898438 148.382812 344.742188 147.738281 C 343.585938 147.097656 342.398438 146.511719 341.183594 145.980469 C 339.96875 145.453125 338.734375 144.984375 337.476562 144.578125 C 336.214844 144.167969 334.941406 143.820312 333.648438 143.539062 C 332.355469 143.253906 331.050781 143.03125 329.738281 142.871094 C 328.421875 142.710938 327.101562 142.617188 325.78125 142.585938 C 324.457031 142.554688 323.136719 142.589844 321.816406 142.683594 C 320.496094 142.78125 319.183594 142.941406 317.878906 143.164062 C 316.574219 143.390625 315.28125 143.675781 314.003906 144.023438 C 312.726562 144.371094 311.46875 144.78125 310.234375 145.253906 C 308.996094 145.722656 307.785156 146.253906 306.597656 146.839844 C 305.410156 147.425781 304.253906 148.070312 303.132812 148.769531 C 302.007812 149.46875 300.917969 150.222656 299.867188 151.027344 C 298.816406 151.832031 297.808594 152.683594 296.839844 153.585938 C 295.871094 154.488281 294.945312 155.4375 294.070312 156.429688 C 293.191406 157.421875 292.367188 158.453125 291.589844 159.523438 C 290.8125 160.59375 290.085938 161.703125 289.417969 162.84375 C 288.746094 163.984375 288.132812 165.15625 287.574219 166.359375 C 287.019531 167.558594 286.519531 168.785156 286.082031 170.035156 C 285.644531 171.285156 285.265625 172.550781 284.953125 173.835938 C 284.636719 175.125 284.382812 176.421875 284.191406 177.730469 C 284.003906 179.042969 283.875 180.359375 283.8125 181.679688 C 283.75 183.003906 283.75 184.328125 283.816406 185.648438 C 283.878906 186.972656 284.007812 188.289062 284.203125 189.597656 C 284.394531 190.90625 284.648438 192.207031 284.96875 193.492188 C 285.285156 194.777344 285.664062 196.042969 286.105469 197.292969 C 286.542969 198.539062 287.042969 199.765625 287.601562 200.964844 C 288.160156 202.164062 288.777344 203.335938 289.449219 204.476562 C 290.121094 205.617188 290.847656 206.722656 291.625 207.792969 C 292.40625 208.863281 293.234375 209.894531 294.113281 210.886719 C 294.992188 211.875 295.914062 212.820312 296.886719 213.722656 C 297.855469 214.625 298.867188 215.476562 299.921875 216.277344 C 300.972656 217.082031 302.0625 217.832031 303.1875 218.527344 C 304.3125 219.226562 305.46875 219.867188 306.65625 220.453125 C 307.84375 221.039062 309.054688 221.566406 310.292969 222.035156 C 311.53125 222.503906 312.789062 222.910156 314.066406 223.257812 C 315.34375 223.605469 316.636719 223.890625 317.941406 224.109375 C 319.246094 224.332031 320.558594 224.492188 321.878906 224.585938 C 321.800781 226.359375 321.460938 228.085938 320.863281 229.757812 L 326.292969 231.820312 C 327.179688 229.488281 327.65625 227.078125 327.71875 224.585938 C 329 224.496094 330.273438 224.34375 331.539062 224.132812 C 332.804688 223.921875 334.058594 223.652344 335.300781 223.324219 C 336.542969 222.996094 337.765625 222.613281 338.972656 222.167969 C 340.175781 221.726562 341.359375 221.226562 342.515625 220.671875 C 343.675781 220.121094 344.804688 219.511719 345.90625 218.851562 C 347.007812 218.191406 348.074219 217.480469 349.109375 216.722656 C 350.144531 215.960938 351.140625 215.15625 352.101562 214.300781 C 353.0625 213.449219 353.976562 212.550781 354.851562 211.609375 C 355.726562 210.671875 356.558594 209.691406 357.339844 208.675781 C 358.125 207.65625 358.855469 206.605469 359.542969 205.519531 C 360.226562 204.429688 360.859375 203.316406 361.4375 202.167969 C 362.015625 201.023438 362.542969 199.851562 363.011719 198.65625 C 363.480469 197.460938 363.894531 196.246094 364.25 195.015625 C 364.605469 193.78125 364.90625 192.53125 365.144531 191.269531 C 365.382812 190.007812 365.5625 188.738281 365.679688 187.460938 C 365.800781 186.179688 365.859375 184.898438 365.859375 183.613281 Z M 324.8125 218.773438 C 323.660156 218.773438 322.507812 218.71875 321.359375 218.605469 C 320.207031 218.492188 319.066406 218.320312 317.933594 218.09375 C 316.800781 217.871094 315.683594 217.589844 314.578125 217.253906 C 313.472656 216.917969 312.386719 216.53125 311.320312 216.085938 C 310.253906 215.644531 309.210938 215.152344 308.195312 214.609375 C 307.175781 214.0625 306.1875 213.46875 305.226562 212.828125 C 304.265625 212.183594 303.339844 211.496094 302.449219 210.765625 C 301.558594 210.03125 300.703125 209.257812 299.886719 208.441406 C 299.070312 207.621094 298.296875 206.769531 297.5625 205.875 C 296.832031 204.980469 296.144531 204.054688 295.503906 203.09375 C 294.863281 202.132812 294.269531 201.144531 293.726562 200.125 C 293.183594 199.105469 292.691406 198.0625 292.25 196.996094 C 291.808594 195.929688 291.421875 194.839844 291.085938 193.738281 C 290.753906 192.632812 290.472656 191.511719 290.25 190.378906 C 290.023438 189.246094 289.855469 188.105469 289.742188 186.957031 C 289.632812 185.804688 289.574219 184.652344 289.578125 183.5 C 289.578125 182.34375 289.632812 181.191406 289.75 180.042969 C 289.863281 178.894531 290.035156 177.75 290.257812 176.621094 C 290.484375 175.488281 290.765625 174.367188 291.105469 173.261719 C 291.441406 172.160156 291.828125 171.074219 292.273438 170.007812 C 292.714844 168.9375 293.210938 167.898438 293.753906 166.878906 C 294.300781 165.859375 294.894531 164.871094 295.535156 163.914062 C 296.179688 162.953125 296.867188 162.027344 297.601562 161.136719 C 298.335938 160.242188 299.109375 159.390625 299.925781 158.574219 C 300.746094 157.757812 301.601562 156.984375 302.496094 156.253906 C 303.386719 155.523438 304.316406 154.835938 305.277344 154.195312 C 306.238281 153.554688 307.226562 152.964844 308.246094 152.421875 C 309.265625 151.878906 310.308594 151.386719 311.375 150.945312 C 312.441406 150.503906 313.53125 150.117188 314.636719 149.785156 C 315.742188 149.449219 316.859375 149.171875 317.992188 148.949219 C 319.125 148.726562 320.265625 148.558594 321.414062 148.445312 C 322.566406 148.335938 323.714844 148.28125 324.871094 148.28125 C 326.027344 148.285156 327.179688 148.34375 328.328125 148.457031 C 329.476562 148.574219 330.617188 148.742188 331.75 148.972656 C 332.878906 149.199219 334 149.480469 335.101562 149.816406 C 336.207031 150.15625 337.292969 150.546875 338.359375 150.988281 C 339.425781 151.433594 340.464844 151.929688 341.484375 152.476562 C 342.5 153.023438 343.488281 153.617188 344.445312 154.261719 C 345.40625 154.902344 346.332031 155.59375 347.222656 156.328125 C 348.113281 157.0625 348.964844 157.839844 349.78125 158.65625 C 350.59375 159.476562 351.367188 160.332031 352.097656 161.226562 C 352.828125 162.121094 353.515625 163.046875 354.152344 164.007812 C 354.792969 164.972656 355.382812 165.960938 355.925781 166.980469 C 356.46875 168 356.960938 169.046875 357.398438 170.113281 C 357.839844 171.179688 358.222656 172.269531 358.554688 173.375 C 358.890625 174.480469 359.167969 175.601562 359.390625 176.734375 C 359.613281 177.867188 359.777344 179.007812 359.890625 180.15625 C 360 181.308594 360.054688 182.460938 360.050781 183.613281 C 360.046875 184.765625 359.984375 185.914062 359.867188 187.0625 C 359.75 188.207031 359.578125 189.34375 359.347656 190.472656 C 359.121094 191.605469 358.835938 192.71875 358.5 193.820312 C 358.160156 194.921875 357.769531 196.003906 357.328125 197.066406 C 356.882812 198.128906 356.390625 199.167969 355.84375 200.183594 C 355.300781 201.199219 354.707031 202.183594 354.0625 203.140625 C 353.421875 204.097656 352.734375 205.019531 352.003906 205.910156 C 351.269531 206.800781 350.496094 207.652344 349.683594 208.464844 C 348.867188 209.277344 348.011719 210.050781 347.121094 210.78125 C 346.230469 211.507812 345.308594 212.195312 344.347656 212.835938 C 343.390625 213.472656 342.402344 214.066406 341.386719 214.609375 C 340.371094 215.152344 339.332031 215.640625 338.269531 216.082031 C 337.203125 216.523438 336.121094 216.914062 335.019531 217.246094 C 333.917969 217.582031 332.800781 217.863281 331.671875 218.089844 C 330.542969 218.316406 329.40625 218.484375 328.257812 218.597656 C 327.113281 218.714844 325.964844 218.773438 324.8125 218.773438 Z M 324.8125 218.773438 " fill-opacity="1" fill-rule="nonzero"/><path fill="#231f20" d="M 351.132812 168.445312 C 350.894531 168.207031 350.625 168.011719 350.320312 167.867188 C 350.4375 167.578125 350.511719 167.277344 350.535156 166.964844 C 350.558594 166.652344 350.53125 166.34375 350.457031 166.039062 C 350.378906 165.738281 350.257812 165.453125 350.089844 165.1875 C 349.921875 164.925781 349.71875 164.691406 349.476562 164.496094 C 349.214844 164.277344 348.925781 164.109375 348.605469 163.996094 C 348.285156 163.878906 347.957031 163.824219 347.617188 163.824219 C 347.277344 163.824219 346.949219 163.878906 346.628906 163.996094 C 346.308594 164.109375 346.019531 164.277344 345.757812 164.496094 C 344.648438 165.0625 343.496094 165.527344 342.300781 165.890625 C 341.40625 165.175781 340.433594 164.597656 339.378906 164.152344 C 338.324219 163.707031 337.234375 163.410156 336.097656 163.261719 C 334.964844 163.117188 333.832031 163.125 332.699219 163.285156 C 331.566406 163.449219 330.476562 163.761719 329.429688 164.222656 C 328.382812 164.683594 327.417969 165.273438 326.535156 166 C 325.648438 166.722656 324.878906 167.554688 324.21875 168.492188 C 323.5625 169.425781 323.042969 170.433594 322.660156 171.511719 C 322.277344 172.589844 322.046875 173.699219 321.964844 174.839844 C 320.480469 174.636719 319.027344 174.292969 317.609375 173.808594 C 316.191406 173.324219 314.832031 172.710938 313.535156 171.960938 C 312.234375 171.214844 311.019531 170.351562 309.886719 169.367188 C 308.753906 168.386719 307.726562 167.304688 306.800781 166.121094 C 306.527344 165.765625 306.191406 165.488281 305.785156 165.289062 C 305.382812 165.089844 304.957031 164.992188 304.507812 164.988281 C 304.050781 164.988281 303.617188 165.089844 303.207031 165.296875 C 302.800781 165.5 302.457031 165.785156 302.183594 166.152344 C 301.671875 166.992188 301.257812 167.875 300.941406 168.804688 C 300.625 169.734375 300.410156 170.6875 300.304688 171.664062 C 300.195312 172.640625 300.195312 173.617188 300.300781 174.59375 C 300.40625 175.570312 300.617188 176.523438 300.933594 177.453125 C 300.28125 178.011719 299.945312 178.71875 299.917969 179.574219 C 299.886719 181.335938 300.199219 183.035156 300.847656 184.671875 C 301.496094 186.308594 302.4375 187.757812 303.664062 189.019531 C 303.449219 189.648438 303.449219 190.277344 303.664062 190.90625 C 304.488281 193.425781 305.960938 195.480469 308.082031 197.066406 C 305.875 197.769531 303.617188 198.011719 301.3125 197.792969 C 300.996094 197.777344 300.6875 197.808594 300.382812 197.894531 C 300.078125 197.976562 299.796875 198.105469 299.535156 198.28125 C 299.273438 198.457031 299.042969 198.671875 298.851562 198.917969 C 298.660156 199.167969 298.511719 199.441406 298.40625 199.742188 C 298.304688 200.046875 298.25 200.359375 298.25 200.683594 C 298.253906 201.007812 298.304688 201.320312 298.410156 201.625 C 298.515625 201.929688 298.667969 202.210938 298.867188 202.464844 C 299.0625 202.71875 299.296875 202.933594 299.570312 203.113281 C 301.976562 204.625 304.535156 205.804688 307.25 206.65625 C 309.960938 207.507812 312.734375 208.003906 315.574219 208.140625 C 316.546875 208.144531 317.515625 208.074219 318.480469 207.933594 C 321.496094 207.675781 324.421875 207.003906 327.25 205.921875 C 330.078125 204.84375 332.703125 203.390625 335.125 201.570312 C 337.828125 199.421875 340.105469 196.886719 341.953125 193.96875 C 343.800781 191.050781 345.117188 187.910156 345.902344 184.542969 C 346.265625 183.042969 346.515625 181.523438 346.660156 179.984375 C 346.660156 179.226562 346.660156 178.472656 346.832031 177.6875 L 346.832031 177.222656 C 348.511719 175.738281 350.011719 174.089844 351.335938 172.28125 C 351.554688 172.003906 351.71875 171.699219 351.824219 171.359375 C 351.933594 171.023438 351.976562 170.679688 351.957031 170.328125 C 351.9375 169.972656 351.859375 169.636719 351.714844 169.3125 C 351.574219 168.988281 351.378906 168.699219 351.132812 168.445312 Z M 341.023438 177.484375 C 341.023438 178.152344 341.023438 178.820312 341.023438 179.460938 C 340.890625 180.742188 340.679688 182.011719 340.382812 183.265625 C 339.765625 186.003906 338.707031 188.566406 337.210938 190.941406 C 335.71875 193.320312 333.871094 195.382812 331.667969 197.125 C 329.640625 198.605469 327.449219 199.78125 325.097656 200.648438 C 322.742188 201.519531 320.3125 202.046875 317.8125 202.242188 C 315.859375 202.507812 313.921875 202.421875 312.003906 201.980469 C 313.886719 201.246094 315.640625 200.28125 317.261719 199.074219 C 317.6875 198.722656 317.992188 198.285156 318.167969 197.761719 C 318.347656 197.238281 318.375 196.707031 318.246094 196.167969 C 318.105469 195.621094 317.824219 195.15625 317.410156 194.773438 C 316.996094 194.386719 316.507812 194.144531 315.953125 194.046875 C 314.3125 193.867188 312.820312 193.296875 311.480469 192.332031 C 312.140625 192.039062 312.625 191.5625 312.933594 190.90625 C 313.160156 190.480469 313.273438 190.027344 313.273438 189.542969 C 313.273438 189.058594 313.160156 188.605469 312.933594 188.175781 L 312.757812 187.914062 C 312.335938 187.210938 311.726562 186.765625 310.925781 186.578125 C 310.160156 186.421875 309.453125 186.121094 308.808594 185.675781 C 308.164062 185.230469 307.632812 184.679688 307.210938 184.023438 C 307.800781 183.992188 308.332031 183.800781 308.804688 183.445312 C 309.277344 183.089844 309.613281 182.632812 309.808594 182.074219 C 310 181.515625 310.023438 180.953125 309.875 180.378906 C 309.722656 179.808594 309.425781 179.328125 308.980469 178.9375 C 308.226562 178.3125 307.625 177.566406 307.171875 176.699219 C 306.71875 175.835938 306.449219 174.914062 306.367188 173.9375 C 309.023438 176.128906 311.964844 177.832031 315.191406 179.039062 C 318.414062 180.25 321.75 180.902344 325.191406 181 C 325.644531 181.027344 326.078125 180.945312 326.488281 180.753906 C 326.898438 180.5625 327.242188 180.289062 327.515625 179.925781 C 327.796875 179.574219 327.984375 179.179688 328.082031 178.738281 C 328.175781 178.300781 328.171875 177.863281 328.066406 177.425781 C 327.949219 176.898438 327.890625 176.367188 327.890625 175.828125 C 327.890625 175.382812 327.9375 174.941406 328.023438 174.507812 C 328.109375 174.070312 328.238281 173.648438 328.40625 173.238281 C 328.578125 172.824219 328.785156 172.4375 329.03125 172.066406 C 329.28125 171.695312 329.5625 171.355469 329.875 171.039062 C 330.1875 170.726562 330.53125 170.445312 330.902344 170.199219 C 331.269531 169.953125 331.660156 169.742188 332.070312 169.574219 C 332.480469 169.402344 332.90625 169.273438 333.339844 169.1875 C 333.777344 169.101562 334.214844 169.058594 334.660156 169.058594 C 335.59375 169.050781 336.488281 169.234375 337.34375 169.609375 C 338.199219 169.984375 338.941406 170.515625 339.570312 171.207031 C 339.800781 171.453125 340.0625 171.65625 340.355469 171.816406 C 340.210938 172.511719 340.308594 173.171875 340.644531 173.792969 C 340.824219 174.15625 341.074219 174.453125 341.402344 174.695312 C 341.0625 175.59375 340.933594 176.523438 341.023438 177.484375 Z M 341.023438 177.484375 " fill-opacity="1" fill-rule="nonzero"/><path fill="#231f20" d="M 284.8125 89.933594 C 285.894531 89.9375 286.972656 89.882812 288.046875 89.777344 C 289.125 89.675781 290.191406 89.515625 291.25 89.304688 C 292.3125 89.097656 293.359375 88.835938 294.394531 88.523438 C 295.429688 88.207031 296.445312 87.847656 297.445312 87.433594 C 298.445312 87.019531 299.421875 86.558594 300.375 86.050781 C 301.328125 85.539062 302.253906 84.988281 303.152344 84.386719 C 304.054688 83.785156 304.921875 83.144531 305.757812 82.457031 C 306.59375 81.773438 307.394531 81.046875 308.160156 80.285156 C 308.921875 79.519531 309.648438 78.71875 310.335938 77.886719 C 311.023438 77.050781 311.664062 76.183594 312.265625 75.285156 C 312.867188 74.386719 313.425781 73.460938 313.933594 72.507812 C 314.445312 71.554688 314.90625 70.578125 315.320312 69.578125 C 315.734375 68.578125 316.101562 67.5625 316.414062 66.527344 C 316.730469 65.496094 316.992188 64.445312 317.203125 63.386719 C 317.414062 62.324219 317.574219 61.257812 317.679688 60.183594 C 317.785156 59.105469 317.839844 58.027344 317.839844 56.945312 C 317.84375 55.863281 317.789062 54.785156 317.683594 53.710938 C 317.578125 52.632812 317.421875 51.566406 317.210938 50.503906 C 317 49.445312 316.738281 48.394531 316.425781 47.363281 C 316.113281 46.328125 315.75 45.308594 315.335938 44.308594 C 314.921875 43.3125 314.460938 42.335938 313.953125 41.378906 C 313.441406 40.425781 312.886719 39.5 312.289062 38.601562 C 311.6875 37.703125 311.046875 36.832031 310.359375 35.996094 C 309.675781 35.160156 308.949219 34.359375 308.1875 33.597656 C 307.421875 32.832031 306.621094 32.105469 305.785156 31.417969 C 304.953125 30.734375 304.085938 30.089844 303.1875 29.488281 C 302.289062 28.886719 301.363281 28.332031 300.410156 27.820312 C 299.457031 27.3125 298.480469 26.847656 297.480469 26.433594 C 296.480469 26.019531 295.464844 25.65625 294.429688 25.34375 C 293.398438 25.027344 292.351562 24.765625 291.289062 24.554688 C 290.230469 24.34375 289.160156 24.183594 288.085938 24.078125 C 287.011719 23.972656 285.933594 23.917969 284.851562 23.917969 C 283.769531 23.917969 282.691406 23.96875 281.617188 24.074219 C 280.539062 24.183594 279.472656 24.339844 278.410156 24.550781 C 277.351562 24.761719 276.304688 25.023438 275.269531 25.335938 C 274.234375 25.652344 273.21875 26.015625 272.21875 26.429688 C 271.21875 26.839844 270.242188 27.304688 269.289062 27.8125 C 268.335938 28.320312 267.410156 28.878906 266.511719 29.476562 C 265.613281 30.078125 264.746094 30.722656 263.910156 31.40625 C 263.074219 32.09375 262.273438 32.816406 261.507812 33.582031 C 260.746094 34.347656 260.019531 35.148438 259.335938 35.984375 C 258.648438 36.820312 258.003906 37.6875 257.40625 38.585938 C 256.804688 39.484375 256.25 40.410156 255.738281 41.363281 C 255.230469 42.316406 254.765625 43.292969 254.355469 44.292969 C 253.941406 45.292969 253.574219 46.308594 253.261719 47.34375 C 252.949219 48.378906 252.6875 49.425781 252.476562 50.484375 C 252.265625 51.546875 252.105469 52.613281 252 53.691406 C 251.894531 54.765625 251.839844 55.84375 251.839844 56.925781 C 251.839844 58.007812 251.894531 59.085938 252.003906 60.160156 C 252.109375 61.234375 252.269531 62.300781 252.480469 63.359375 C 252.691406 64.421875 252.953125 65.464844 253.265625 66.5 C 253.582031 67.535156 253.945312 68.550781 254.359375 69.546875 C 254.769531 70.546875 255.234375 71.519531 255.742188 72.472656 C 256.25 73.425781 256.804688 74.351562 257.40625 75.25 C 258.003906 76.148438 258.648438 77.015625 259.332031 77.847656 C 260.015625 78.683594 260.742188 79.484375 261.503906 80.25 C 262.269531 81.011719 263.066406 81.738281 263.902344 82.421875 C 264.734375 83.109375 265.601562 83.753906 266.5 84.351562 C 267.394531 84.953125 268.320312 85.507812 269.273438 86.019531 C 270.226562 86.53125 271.199219 86.992188 272.195312 87.40625 C 273.195312 87.820312 274.210938 88.1875 275.242188 88.5 C 276.273438 88.816406 277.320312 89.078125 278.378906 89.292969 C 279.4375 89.503906 280.503906 89.664062 281.582031 89.769531 C 282.65625 89.878906 283.730469 89.933594 284.8125 89.933594 Z M 284.8125 29.902344 C 285.703125 29.902344 286.589844 29.945312 287.476562 30.03125 C 288.363281 30.117188 289.246094 30.246094 290.121094 30.421875 C 290.992188 30.59375 291.855469 30.808594 292.710938 31.066406 C 293.5625 31.324219 294.402344 31.625 295.222656 31.964844 C 296.046875 32.304688 296.851562 32.683594 297.636719 33.105469 C 298.425781 33.523438 299.1875 33.980469 299.929688 34.476562 C 300.671875 34.96875 301.386719 35.5 302.074219 36.0625 C 302.761719 36.628906 303.421875 37.226562 304.054688 37.855469 C 304.683594 38.484375 305.28125 39.144531 305.847656 39.832031 C 306.414062 40.523438 306.945312 41.234375 307.441406 41.976562 C 307.933594 42.71875 308.394531 43.480469 308.8125 44.265625 C 309.234375 45.050781 309.613281 45.855469 309.957031 46.679688 C 310.296875 47.503906 310.597656 48.339844 310.855469 49.191406 C 311.117188 50.046875 311.332031 50.910156 311.507812 51.78125 C 311.679688 52.65625 311.8125 53.539062 311.898438 54.425781 C 311.988281 55.3125 312.03125 56.199219 312.03125 57.089844 C 312.03125 57.980469 311.988281 58.871094 311.902344 59.757812 C 311.8125 60.644531 311.683594 61.527344 311.511719 62.398438 C 311.335938 63.273438 311.121094 64.136719 310.863281 64.988281 C 310.605469 65.84375 310.304688 66.679688 309.964844 67.503906 C 309.621094 68.328125 309.242188 69.132812 308.824219 69.917969 C 308.402344 70.703125 307.945312 71.46875 307.449219 72.207031 C 306.957031 72.949219 306.425781 73.664062 305.859375 74.355469 C 305.296875 75.042969 304.699219 75.703125 304.066406 76.332031 C 303.4375 76.960938 302.777344 77.558594 302.089844 78.125 C 301.402344 78.691406 300.6875 79.222656 299.945312 79.714844 C 299.203125 80.210938 298.441406 80.667969 297.65625 81.089844 C 296.871094 81.507812 296.066406 81.890625 295.242188 82.230469 C 294.417969 82.570312 293.582031 82.871094 292.726562 83.128906 C 291.875 83.386719 291.011719 83.601562 290.136719 83.777344 C 289.265625 83.949219 288.382812 84.082031 287.496094 84.167969 C 286.609375 84.253906 285.722656 84.296875 284.832031 84.296875 C 283.941406 84.296875 283.050781 84.253906 282.164062 84.167969 C 281.277344 84.078125 280.398438 83.949219 279.523438 83.773438 C 278.652344 83.597656 277.789062 83.382812 276.933594 83.125 C 276.082031 82.863281 275.246094 82.5625 274.421875 82.222656 C 273.597656 81.882812 272.796875 81.5 272.007812 81.078125 C 271.222656 80.660156 270.460938 80.199219 269.71875 79.707031 C 268.980469 79.210938 268.265625 78.679688 267.578125 78.113281 C 266.890625 77.546875 266.230469 76.949219 265.601562 76.320312 C 264.972656 75.6875 264.375 75.027344 263.808594 74.339844 C 263.246094 73.648438 262.714844 72.933594 262.222656 72.191406 C 261.726562 71.453125 261.269531 70.6875 260.851562 69.902344 C 260.429688 69.113281 260.050781 68.308594 259.710938 67.488281 C 259.371094 66.664062 259.070312 65.824219 258.8125 64.972656 C 258.554688 64.117188 258.339844 63.253906 258.167969 62.378906 C 257.996094 61.507812 257.867188 60.625 257.777344 59.738281 C 257.691406 58.851562 257.648438 57.964844 257.652344 57.070312 C 257.652344 56.183594 257.695312 55.296875 257.785156 54.410156 C 257.871094 53.523438 258.003906 52.644531 258.175781 51.773438 C 258.351562 50.902344 258.566406 50.039062 258.828125 49.1875 C 259.085938 48.335938 259.386719 47.5 259.726562 46.679688 C 260.066406 45.859375 260.445312 45.054688 260.867188 44.269531 C 261.285156 43.484375 261.742188 42.722656 262.238281 41.984375 C 262.730469 41.246094 263.261719 40.53125 263.824219 39.84375 C 264.390625 39.15625 264.984375 38.5 265.613281 37.871094 C 266.242188 37.242188 266.902344 36.644531 267.589844 36.078125 C 268.277344 35.515625 268.988281 34.984375 269.730469 34.492188 C 270.46875 33.996094 271.230469 33.539062 272.015625 33.121094 C 272.796875 32.699219 273.601562 32.320312 274.421875 31.980469 C 275.242188 31.636719 276.078125 31.339844 276.929688 31.078125 C 277.78125 30.820312 278.644531 30.605469 279.515625 30.429688 C 280.386719 30.257812 281.265625 30.125 282.152344 30.035156 C 283.035156 29.949219 283.921875 29.90625 284.8125 29.902344 Z M 284.8125 29.902344 " fill-opacity="1" fill-rule="nonzero"/><path fill="#231f20" d="M 279.757812 75.84375 L 280.773438 75.84375 L 280.773438 76.597656 L 280.601562 78.136719 C 280.558594 78.78125 280.667969 79.398438 280.929688 79.992188 C 281.191406 80.582031 281.578125 81.078125 282.082031 81.480469 C 282.746094 81.964844 283.492188 82.199219 284.316406 82.175781 C 285 82.175781 285.660156 82.046875 286.292969 81.800781 C 292.589844 78.511719 298.328125 74.445312 303.519531 69.59375 C 311.101562 61.34375 311.886719 52.160156 305.785156 44.171875 C 305.523438 43.734375 299.164062 34 282.226562 35.277344 L 281.820312 35.277344 C 277.664062 35.917969 263.894531 39 261.078125 52.714844 C 260.875 53.148438 258.203125 70.582031 279.757812 75.84375 Z M 266.597656 54.136719 C 268.601562 44.34375 278.390625 41.847656 282.488281 41.234375 C 295.675781 40.304688 300.410156 47.046875 300.730469 47.628906 C 305.261719 53.671875 304.683594 59.601562 298.960938 65.816406 C 295.199219 69.378906 291.074219 72.449219 286.582031 75.027344 C 286.597656 74.445312 286.519531 73.875 286.351562 73.316406 C 285.597656 71.078125 282.980469 70.410156 280.832031 70.175781 C 264.972656 66.050781 266.539062 54.515625 266.597656 54.136719 Z M 266.597656 54.136719 " fill-opacity="1" fill-rule="nonzero"/><path fill="#231f20" d="M 276.328125 58.523438 C 276.679688 58.527344 277.011719 58.464844 277.335938 58.335938 C 277.660156 58.203125 277.945312 58.015625 278.195312 57.773438 C 278.441406 57.527344 278.632812 57.246094 278.769531 56.925781 C 278.902344 56.601562 278.972656 56.269531 278.972656 55.917969 C 278.972656 55.570312 278.910156 55.234375 278.777344 54.914062 C 278.644531 54.589844 278.453125 54.308594 278.207031 54.0625 C 277.960938 53.8125 277.675781 53.625 277.355469 53.492188 C 277.03125 53.359375 276.695312 53.292969 276.347656 53.292969 C 276 53.296875 275.664062 53.363281 275.34375 53.5 C 275.023438 53.632812 274.742188 53.824219 274.496094 54.074219 C 274.25 54.324219 274.0625 54.609375 273.933594 54.929688 C 273.804688 55.253906 273.742188 55.589844 273.742188 55.9375 C 273.742188 56.28125 273.808594 56.613281 273.941406 56.929688 C 274.070312 57.246094 274.257812 57.523438 274.5 57.765625 C 274.742188 58.007812 275.023438 58.195312 275.339844 58.328125 C 275.65625 58.460938 275.988281 58.523438 276.328125 58.523438 Z M 276.328125 58.523438 " fill-opacity="1" fill-rule="nonzero"/><path fill="#231f20" d="M 286.410156 58.523438 C 286.757812 58.527344 287.09375 58.464844 287.417969 58.335938 C 287.738281 58.203125 288.027344 58.015625 288.273438 57.773438 C 288.523438 57.527344 288.714844 57.246094 288.847656 56.925781 C 288.984375 56.601562 289.050781 56.269531 289.054688 55.917969 C 289.054688 55.570312 288.988281 55.234375 288.855469 54.914062 C 288.722656 54.589844 288.535156 54.308594 288.289062 54.0625 C 288.039062 53.8125 287.757812 53.625 287.433594 53.492188 C 287.113281 53.359375 286.777344 53.292969 286.429688 53.292969 C 286.082031 53.296875 285.746094 53.363281 285.425781 53.5 C 285.105469 53.632812 284.820312 53.824219 284.578125 54.074219 C 284.332031 54.324219 284.144531 54.609375 284.015625 54.929688 C 283.882812 55.253906 283.820312 55.589844 283.824219 55.9375 C 283.824219 56.28125 283.890625 56.613281 284.019531 56.929688 C 284.152344 57.246094 284.339844 57.523438 284.582031 57.765625 C 284.824219 58.007812 285.101562 58.195312 285.421875 58.328125 C 285.738281 58.460938 286.066406 58.523438 286.410156 58.523438 Z M 286.410156 58.523438 " fill-opacity="1" fill-rule="nonzero"/><path fill="#231f20" d="M 299.105469 55.9375 C 299.105469 56.285156 299.039062 56.617188 298.90625 56.9375 C 298.773438 57.261719 298.582031 57.542969 298.339844 57.789062 C 298.09375 58.03125 297.8125 58.222656 297.492188 58.355469 C 297.171875 58.488281 296.835938 58.554688 296.488281 58.554688 C 296.144531 58.554688 295.808594 58.488281 295.488281 58.355469 C 295.167969 58.222656 294.886719 58.03125 294.640625 57.789062 C 294.394531 57.542969 294.207031 57.261719 294.074219 56.9375 C 293.941406 56.617188 293.875 56.285156 293.875 55.9375 C 293.875 55.59375 293.941406 55.257812 294.074219 54.9375 C 294.207031 54.617188 294.394531 54.335938 294.640625 54.089844 C 294.886719 53.84375 295.167969 53.65625 295.488281 53.523438 C 295.808594 53.390625 296.144531 53.324219 296.488281 53.324219 C 296.835938 53.324219 297.171875 53.390625 297.492188 53.523438 C 297.8125 53.65625 298.09375 53.84375 298.339844 54.089844 C 298.582031 54.335938 298.773438 54.617188 298.90625 54.9375 C 299.039062 55.257812 299.105469 55.59375 299.105469 55.9375 Z M 299.105469 55.9375 " fill-opacity="1" fill-rule="nonzero"/><path fill="#231f20" d="M 120.792969 322.65625 L 128.4375 319.546875 L 130.625 324.933594 L 122.980469 328.039062 Z M 120.792969 322.65625 " fill-opacity="1" fill-rule="nonzero"/><path fill="#231f20" d="M 69.960938 327.910156 C 72.664062 329.710938 75.566406 331.074219 78.675781 332.007812 L 80.417969 326.457031 C 77.902344 325.691406 75.550781 324.578125 73.359375 323.117188 Z M 69.960938 327.910156 " fill-opacity="1" fill-rule="nonzero"/><path fill="#231f20" d="M 88.261719 328.058594 L 87.652344 333.867188 C 89.714844 334.070312 91.921875 334.1875 94.1875 334.1875 L 96.746094 334.1875 L 96.542969 328.375 C 93.773438 328.464844 91.015625 328.359375 88.261719 328.058594 Z M 88.261719 328.058594 " fill-opacity="1" fill-rule="nonzero"/><path fill="#231f20" d="M 111.152344 326.546875 C 109.035156 326.953125 106.941406 327.300781 104.964844 327.5625 L 105.722656 333.375 C 107.898438 333.054688 110.195312 332.707031 112.546875 332.242188 C 112.75 332.222656 112.945312 332.175781 113.128906 332.09375 L 114.960938 331.371094 L 112.78125 325.992188 Z M 111.152344 326.546875 " fill-opacity="1" fill-rule="nonzero"/><path fill="#231f20" d="M 59.300781 311.753906 C 59.785156 315.199219 61.035156 318.335938 63.046875 321.171875 L 67.839844 317.886719 C 66.421875 315.863281 65.503906 313.636719 65.082031 311.203125 Z M 59.300781 311.753906 " fill-opacity="1" fill-rule="nonzero"/><path fill="#231f20" d="M 120.1875 68.316406 C 122.039062 68.320312 123.878906 68.464844 125.707031 68.753906 L 126.578125 62.941406 C 124.460938 62.621094 122.332031 62.453125 120.1875 62.449219 C 119.148438 62.4375 118.113281 62.484375 117.078125 62.59375 L 117.777344 68.402344 C 118.578125 68.320312 119.382812 68.289062 120.1875 68.316406 Z M 120.1875 68.316406 " fill-opacity="1" fill-rule="nonzero"/><path fill="#231f20" d="M 154.929688 102.75 L 160.742188 101.964844 C 160.355469 98.949219 159.757812 95.972656 158.941406 93.042969 L 153.363281 94.585938 C 154.070312 97.269531 154.59375 99.992188 154.929688 102.75 Z M 154.929688 102.75 " fill-opacity="1" fill-rule="nonzero"/><path fill="#231f20" d="M 143.894531 69.972656 C 141.328125 68.105469 138.570312 66.59375 135.613281 65.441406 L 133.464844 70.816406 C 135.949219 71.804688 138.269531 73.082031 140.4375 74.652344 Z M 143.894531 69.972656 " fill-opacity="1" fill-rule="nonzero"/><path fill="#231f20" d="M 155.6875 84.414062 C 154.332031 81.546875 152.664062 78.875 150.691406 76.394531 L 146.1875 80.027344 C 147.867188 82.132812 149.292969 84.398438 150.457031 86.824219 Z M 155.6875 84.414062 " fill-opacity="1" fill-rule="nonzero"/><path fill="#231f20" d="M 251.40625 61.691406 L 250.738281 55.878906 C 248.273438 56.152344 245.832031 56.558594 243.417969 57.101562 L 244.636719 62.765625 C 246.875 62.289062 249.128906 61.929688 251.40625 61.691406 Z M 251.40625 61.691406 " fill-opacity="1" fill-rule="nonzero"/><path fill="#231f20" d="M 224.011719 74.300781 L 219.449219 70.730469 C 217.453125 73.28125 215.90625 76.078125 214.800781 79.125 L 220.265625 81.101562 C 221.164062 78.640625 222.410156 76.375 224.011719 74.300781 Z M 224.011719 74.300781 " fill-opacity="1" fill-rule="nonzero"/><path fill="#231f20" d="M 236.792969 65.179688 L 234.613281 59.773438 C 231.714844 60.9375 228.984375 62.410156 226.421875 64.191406 L 229.761719 68.957031 C 231.957031 67.421875 234.300781 66.160156 236.792969 65.179688 Z M 236.792969 65.179688 " fill-opacity="1" fill-rule="nonzero"/><path fill="#231f20" d="M 219.042969 96.734375 C 218.699219 94.929688 218.535156 93.109375 218.550781 91.273438 C 218.550781 90.554688 218.550781 89.769531 218.550781 88.917969 L 212.738281 88.511719 C 212.738281 89.46875 212.738281 90.398438 212.738281 91.417969 C 212.71875 93.707031 212.941406 95.972656 213.410156 98.214844 Z M 219.042969 96.734375 " fill-opacity="1" fill-rule="nonzero"/><path fill="#231f20" d="M 310.289062 240.074219 L 312.816406 245.300781 C 315.738281 243.925781 318.382812 242.132812 320.746094 239.925781 L 316.738281 235.714844 C 314.808594 237.496094 312.660156 238.949219 310.289062 240.074219 Z M 310.289062 240.074219 " fill-opacity="1" fill-rule="nonzero"/><path fill="#231f20" d="M 294.425781 244.605469 L 295.269531 250.417969 C 298.269531 249.980469 301.234375 249.359375 304.160156 248.558594 L 302.621094 242.949219 C 299.921875 243.664062 297.191406 244.214844 294.425781 244.605469 Z M 294.425781 244.605469 " fill-opacity="1" fill-rule="nonzero"/><path fill="#231f20" d="M 192.316406 173.675781 C 191.183594 173.675781 190.054688 173.734375 188.925781 173.84375 C 187.800781 173.953125 186.679688 174.121094 185.570312 174.34375 C 184.457031 174.5625 183.359375 174.839844 182.273438 175.167969 C 181.191406 175.496094 180.125 175.878906 179.078125 176.3125 C 178.03125 176.746094 177.007812 177.230469 176.007812 177.761719 C 175.007812 178.296875 174.039062 178.878906 173.097656 179.507812 C 172.15625 180.140625 171.246094 180.8125 170.371094 181.53125 C 169.492188 182.25 168.65625 183.011719 167.855469 183.8125 C 167.050781 184.613281 166.292969 185.453125 165.574219 186.328125 C 164.855469 187.207031 164.179688 188.113281 163.550781 189.058594 C 162.921875 190 162.339844 190.972656 161.804688 191.96875 C 161.269531 192.96875 160.789062 193.992188 160.355469 195.039062 C 159.921875 196.085938 159.539062 197.152344 159.210938 198.238281 C 158.882812 199.324219 158.605469 200.421875 158.386719 201.53125 C 158.164062 202.644531 157.996094 203.765625 157.886719 204.890625 C 157.777344 206.019531 157.71875 207.152344 157.71875 208.285156 C 157.71875 209.417969 157.777344 210.546875 157.886719 211.675781 C 157.996094 212.804688 158.164062 213.925781 158.386719 215.035156 C 158.605469 216.148438 158.882812 217.246094 159.210938 218.328125 C 159.539062 219.414062 159.921875 220.480469 160.355469 221.527344 C 160.789062 222.574219 161.269531 223.597656 161.804688 224.597656 C 162.339844 225.597656 162.921875 226.566406 163.550781 227.511719 C 164.179688 228.453125 164.855469 229.363281 165.574219 230.238281 C 166.292969 231.113281 167.050781 231.953125 167.855469 232.753906 C 168.65625 233.554688 169.492188 234.316406 170.371094 235.035156 C 171.246094 235.753906 172.15625 236.429688 173.097656 237.058594 C 174.039062 237.6875 175.007812 238.269531 176.007812 238.804688 C 177.007812 239.339844 178.03125 239.824219 179.078125 240.257812 C 180.125 240.691406 181.191406 241.070312 182.273438 241.402344 C 183.359375 241.730469 184.457031 242.003906 185.570312 242.226562 C 186.679688 242.445312 187.800781 242.613281 188.925781 242.722656 C 190.054688 242.835938 191.183594 242.890625 192.316406 242.890625 C 193.453125 242.890625 194.582031 242.835938 195.710938 242.722656 C 196.835938 242.613281 197.957031 242.445312 199.066406 242.226562 C 200.179688 242.003906 201.277344 241.730469 202.363281 241.402344 C 203.445312 241.070312 204.511719 240.691406 205.558594 240.257812 C 206.605469 239.824219 207.628906 239.339844 208.628906 238.804688 C 209.625 238.269531 210.597656 237.6875 211.539062 237.058594 C 212.480469 236.429688 213.390625 235.753906 214.265625 235.035156 C 215.144531 234.316406 215.980469 233.554688 216.78125 232.753906 C 217.582031 231.953125 218.34375 231.113281 219.0625 230.238281 C 219.78125 229.363281 220.457031 228.453125 221.085938 227.511719 C 221.714844 226.566406 222.296875 225.597656 222.832031 224.597656 C 223.363281 223.597656 223.847656 222.574219 224.28125 221.527344 C 224.714844 220.480469 225.097656 219.414062 225.425781 218.328125 C 225.753906 217.246094 226.03125 216.148438 226.25 215.035156 C 226.472656 213.925781 226.636719 212.804688 226.75 211.675781 C 226.859375 210.546875 226.917969 209.417969 226.917969 208.285156 C 226.914062 207.152344 226.859375 206.019531 226.746094 204.894531 C 226.636719 203.765625 226.46875 202.644531 226.246094 201.535156 C 226.023438 200.421875 225.75 199.324219 225.421875 198.242188 C 225.089844 197.15625 224.707031 196.09375 224.273438 195.046875 C 223.839844 194 223.355469 192.976562 222.824219 191.976562 C 222.289062 190.976562 221.707031 190.007812 221.078125 189.0625 C 220.445312 188.121094 219.773438 187.214844 219.054688 186.335938 C 218.335938 185.460938 217.574219 184.625 216.773438 183.820312 C 215.972656 183.019531 215.136719 182.261719 214.257812 181.542969 C 213.382812 180.824219 212.476562 180.148438 211.53125 179.519531 C 210.589844 178.890625 209.621094 178.304688 208.621094 177.773438 C 207.621094 177.238281 206.601562 176.753906 205.554688 176.320312 C 204.507812 175.886719 203.441406 175.503906 202.359375 175.175781 C 201.273438 174.84375 200.175781 174.570312 199.066406 174.347656 C 197.953125 174.125 196.835938 173.957031 195.707031 173.847656 C 194.582031 173.734375 193.449219 173.679688 192.316406 173.675781 Z M 214.484375 189.921875 C 210.808594 190.917969 207.078125 191.65625 203.300781 192.128906 C 201.804688 187.703125 199.664062 183.617188 196.878906 179.867188 C 198.589844 180.140625 200.257812 180.566406 201.890625 181.140625 C 203.523438 181.71875 205.089844 182.433594 206.59375 183.292969 C 208.097656 184.152344 209.511719 185.136719 210.835938 186.25 C 212.164062 187.363281 213.378906 188.585938 214.484375 189.921875 Z M 191.882812 234.667969 C 189.367188 231.386719 187.429688 227.792969 186.074219 223.886719 C 189.945312 223.640625 193.820312 223.640625 197.691406 223.886719 C 196.351562 227.800781 194.414062 231.394531 191.882812 234.667969 Z M 184.476562 218.105469 C 184.019531 215.917969 183.730469 213.710938 183.601562 211.480469 L 200.277344 211.480469 C 200.164062 213.722656 199.875 215.941406 199.40625 218.132812 C 194.429688 217.742188 189.453125 217.730469 184.476562 218.105469 Z M 197.371094 192.621094 C 193.75 192.824219 190.128906 192.824219 186.507812 192.621094 C 187.835938 189.082031 189.644531 185.808594 191.941406 182.800781 C 194.25 185.800781 196.058594 189.074219 197.371094 192.621094 Z M 191.824219 198.695312 C 194.175781 198.695312 196.617188 198.695312 199.175781 198.40625 C 199.726562 200.796875 200.09375 203.21875 200.277344 205.667969 L 183.632812 205.667969 C 183.773438 203.226562 184.121094 200.816406 184.679688 198.433594 C 186.914062 198.636719 189.269531 198.753906 191.765625 198.753906 Z M 177.878906 205.609375 L 163.675781 205.609375 C 163.992188 202.023438 164.960938 198.625 166.582031 195.410156 C 170.628906 196.511719 174.734375 197.316406 178.898438 197.824219 C 178.34375 200.410156 177.988281 203.027344 177.824219 205.667969 Z M 177.878906 211.421875 C 178.011719 213.851562 178.300781 216.265625 178.753906 218.65625 C 174.667969 219.164062 170.640625 219.957031 166.667969 221.039062 C 165.121094 218.007812 164.15625 214.800781 163.761719 211.421875 Z M 206.058594 211.421875 L 221.019531 211.421875 C 220.574219 215.054688 219.46875 218.472656 217.707031 221.679688 C 213.539062 220.390625 209.296875 219.421875 204.984375 218.773438 C 205.515625 216.367188 205.882812 213.9375 206.085938 211.480469 Z M 206.058594 205.609375 C 205.90625 202.96875 205.550781 200.351562 204.984375 197.765625 C 209.382812 197.117188 213.710938 196.148438 217.96875 194.859375 C 219.71875 198.207031 220.765625 201.761719 221.105469 205.523438 Z M 186.914062 179.984375 C 184.183594 183.695312 182.070312 187.734375 180.582031 192.097656 C 177.019531 191.683594 173.496094 191.066406 170.007812 190.238281 C 172.117188 187.601562 174.613281 185.40625 177.5 183.652344 C 180.386719 181.902344 183.488281 180.695312 186.800781 180.039062 Z M 169.890625 226.269531 C 173.28125 225.523438 176.699219 224.960938 180.148438 224.585938 C 181.496094 228.839844 183.433594 232.8125 185.957031 236.5 C 182.777344 235.753906 179.808594 234.507812 177.054688 232.753906 C 174.296875 231 171.910156 228.835938 169.890625 226.269531 Z M 197.632812 236.554688 C 200.234375 232.871094 202.230469 228.878906 203.617188 224.585938 C 207.289062 225.074219 210.910156 225.8125 214.484375 226.792969 C 212.328125 229.351562 209.804688 231.46875 206.910156 233.144531 C 204.015625 234.820312 200.925781 235.957031 197.632812 236.554688 Z M 197.632812 236.554688 " fill-opacity="1" fill-rule="nonzero"/><path fill="#231f20" d="M 206.085938 297.054688 L 179.507812 297.054688 C 179.039062 297.054688 178.578125 297.097656 178.117188 297.191406 C 177.660156 297.28125 177.214844 297.414062 176.785156 297.59375 C 176.351562 297.773438 175.941406 297.992188 175.554688 298.253906 C 175.164062 298.511719 174.804688 298.808594 174.476562 299.136719 C 174.144531 299.46875 173.847656 299.828125 173.589844 300.21875 C 173.332031 300.605469 173.109375 301.015625 172.933594 301.449219 C 172.753906 301.878906 172.617188 302.324219 172.527344 302.78125 C 172.4375 303.242188 172.390625 303.703125 172.390625 304.171875 C 172.390625 304.640625 172.4375 305.101562 172.527344 305.5625 C 172.617188 306.019531 172.753906 306.464844 172.933594 306.894531 C 173.109375 307.328125 173.332031 307.738281 173.589844 308.128906 C 173.847656 308.515625 174.144531 308.875 174.476562 309.207031 C 174.804688 309.535156 175.164062 309.832031 175.554688 310.089844 C 175.941406 310.351562 176.351562 310.570312 176.785156 310.75 C 177.214844 310.929688 177.660156 311.0625 178.117188 311.152344 C 178.578125 311.246094 179.039062 311.289062 179.507812 311.289062 L 206.085938 311.289062 C 206.554688 311.289062 207.019531 311.246094 207.476562 311.152344 C 207.933594 311.0625 208.378906 310.929688 208.8125 310.75 C 209.242188 310.570312 209.652344 310.351562 210.042969 310.089844 C 210.429688 309.832031 210.789062 309.535156 211.121094 309.207031 C 211.449219 308.875 211.746094 308.515625 212.003906 308.128906 C 212.265625 307.738281 212.484375 307.328125 212.664062 306.894531 C 212.84375 306.464844 212.976562 306.019531 213.066406 305.5625 C 213.160156 305.101562 213.203125 304.640625 213.203125 304.171875 C 213.203125 303.703125 213.160156 303.242188 213.066406 302.78125 C 212.976562 302.324219 212.84375 301.878906 212.664062 301.449219 C 212.484375 301.015625 212.265625 300.605469 212.003906 300.21875 C 211.746094 299.828125 211.449219 299.46875 211.121094 299.136719 C 210.789062 298.808594 210.429688 298.511719 210.042969 298.253906 C 209.652344 297.992188 209.242188 297.773438 208.8125 297.59375 C 208.378906 297.414062 207.933594 297.28125 207.476562 297.191406 C 207.019531 297.097656 206.554688 297.054688 206.085938 297.054688 Z M 206.085938 305.480469 L 179.507812 305.480469 C 179.335938 305.480469 179.167969 305.445312 179.007812 305.378906 C 178.847656 305.3125 178.707031 305.21875 178.582031 305.097656 C 178.460938 304.972656 178.367188 304.832031 178.300781 304.671875 C 178.234375 304.511719 178.199219 304.34375 178.199219 304.171875 C 178.203125 304 178.238281 303.835938 178.308594 303.675781 C 178.375 303.515625 178.46875 303.378906 178.589844 303.253906 C 178.714844 303.132812 178.851562 303.039062 179.011719 302.972656 C 179.171875 302.902344 179.335938 302.867188 179.507812 302.863281 L 206.085938 302.863281 C 206.261719 302.863281 206.429688 302.898438 206.589844 302.964844 C 206.75 303.03125 206.890625 303.125 207.011719 303.246094 C 207.132812 303.371094 207.230469 303.511719 207.296875 303.671875 C 207.363281 303.832031 207.394531 304 207.394531 304.171875 C 207.394531 304.34375 207.363281 304.511719 207.296875 304.671875 C 207.230469 304.832031 207.132812 304.972656 207.011719 305.097656 C 206.890625 305.21875 206.75 305.3125 206.589844 305.378906 C 206.429688 305.445312 206.261719 305.480469 206.085938 305.480469 Z M 206.085938 305.480469 " fill-opacity="1" fill-rule="nonzero"/><g clip-path="url(#638e54f844)"><path fill="#231f20" d="M 293.875 313.847656 C 293.613281 313.121094 292.945312 311.378906 292.160156 309.375 C 291.085938 306.46875 289.054688 301.296875 288.792969 299.988281 C 288.792969 294.816406 289.054688 289.554688 289.285156 284.441406 C 289.914062 275.148438 289.972656 265.847656 289.460938 256.546875 C 288.441406 247.082031 286.289062 237.878906 283.011719 228.945312 L 278.1875 214.125 C 277.496094 211.929688 277.148438 209.683594 277.144531 207.382812 L 277.144531 168.183594 C 277.140625 167.375 276.847656 166.6875 276.269531 166.121094 C 275.691406 165.546875 274.996094 165.265625 274.179688 165.28125 C 272.546875 165.300781 270.933594 165.480469 269.335938 165.824219 C 267.738281 166.167969 266.191406 166.667969 264.695312 167.324219 C 263.199219 167.976562 261.78125 168.773438 260.445312 169.710938 C 259.105469 170.648438 257.875 171.707031 256.75 172.894531 L 256.75 115.128906 C 256.757812 114.679688 256.722656 114.234375 256.640625 113.792969 C 256.558594 113.355469 256.433594 112.925781 256.265625 112.511719 C 256.097656 112.097656 255.886719 111.703125 255.640625 111.328125 C 255.394531 110.957031 255.109375 110.609375 254.792969 110.292969 C 254.476562 109.976562 254.128906 109.699219 253.753906 109.449219 C 253.382812 109.203125 252.984375 109 252.570312 108.832031 C 252.15625 108.664062 251.726562 108.542969 251.285156 108.460938 C 250.84375 108.382812 250.398438 108.347656 249.953125 108.355469 L 135.789062 108.355469 C 135.351562 108.355469 134.917969 108.398438 134.492188 108.484375 C 134.066406 108.570312 133.648438 108.695312 133.246094 108.863281 C 132.84375 109.03125 132.460938 109.238281 132.097656 109.480469 C 131.738281 109.722656 131.402344 110 131.09375 110.308594 C 130.785156 110.617188 130.511719 110.953125 130.269531 111.316406 C 130.03125 111.679688 129.824219 112.0625 129.660156 112.46875 C 129.496094 112.871094 129.371094 113.285156 129.285156 113.714844 C 129.203125 114.144531 129.164062 114.574219 129.164062 115.011719 L 129.164062 169.144531 L 126.113281 169.144531 C 125.527344 169.144531 124.945312 169.203125 124.367188 169.316406 C 123.789062 169.429688 123.230469 169.601562 122.6875 169.824219 C 122.140625 170.050781 121.625 170.324219 121.136719 170.652344 C 120.648438 170.976562 120.195312 171.347656 119.777344 171.765625 C 119.359375 172.179688 118.988281 172.632812 118.660156 173.121094 C 118.332031 173.609375 118.054688 174.125 117.828125 174.667969 C 117.601562 175.210938 117.433594 175.769531 117.316406 176.347656 C 117.199219 176.921875 117.140625 177.503906 117.136719 178.09375 L 117.136719 190.761719 C 117.144531 191.566406 117.257812 192.351562 117.476562 193.125 C 117.695312 193.894531 118.011719 194.625 118.425781 195.3125 C 118.839844 196 119.335938 196.621094 119.914062 197.175781 C 120.496094 197.730469 121.136719 198.199219 121.84375 198.578125 C 121.140625 198.960938 120.5 199.429688 119.921875 199.984375 C 119.34375 200.539062 118.847656 201.160156 118.4375 201.847656 C 118.027344 202.535156 117.710938 203.265625 117.496094 204.035156 C 117.28125 204.808594 117.171875 205.59375 117.167969 206.394531 L 117.167969 219.0625 C 117.171875 219.863281 117.285156 220.652344 117.5 221.421875 C 117.714844 222.191406 118.03125 222.921875 118.441406 223.609375 C 118.851562 224.296875 119.347656 224.917969 119.925781 225.472656 C 120.5 226.027344 121.140625 226.496094 121.84375 226.878906 C 121.140625 227.265625 120.5 227.734375 119.925781 228.289062 C 119.347656 228.84375 118.851562 229.464844 118.441406 230.152344 C 118.03125 230.839844 117.714844 231.566406 117.5 232.339844 C 117.285156 233.109375 117.171875 233.894531 117.167969 234.695312 L 117.167969 247.367188 C 117.171875 248.167969 117.28125 248.957031 117.496094 249.730469 C 117.714844 250.503906 118.027344 251.234375 118.4375 251.925781 C 118.847656 252.613281 119.34375 253.238281 119.921875 253.796875 C 120.5 254.351562 121.140625 254.824219 121.84375 255.210938 C 121.136719 255.589844 120.492188 256.054688 119.910156 256.609375 C 119.328125 257.164062 118.832031 257.785156 118.417969 258.472656 C 118.003906 259.160156 117.6875 259.890625 117.46875 260.664062 C 117.253906 261.4375 117.140625 262.222656 117.136719 263.027344 L 117.136719 275.667969 C 117.140625 276.253906 117.199219 276.839844 117.316406 277.414062 C 117.433594 277.992188 117.601562 278.550781 117.828125 279.09375 C 118.054688 279.636719 118.332031 280.152344 118.660156 280.640625 C 118.988281 281.128906 119.359375 281.582031 119.777344 281.996094 C 120.195312 282.414062 120.648438 282.785156 121.136719 283.109375 C 121.625 283.4375 122.140625 283.710938 122.6875 283.9375 C 123.230469 284.160156 123.789062 284.332031 124.367188 284.445312 C 124.945312 284.558594 125.527344 284.617188 126.113281 284.617188 L 129.164062 284.617188 L 129.164062 312.394531 C 129.164062 312.832031 129.207031 313.261719 129.292969 313.691406 C 129.375 314.117188 129.503906 314.53125 129.667969 314.933594 C 129.835938 315.335938 130.039062 315.71875 130.28125 316.082031 C 130.519531 316.445312 130.796875 316.78125 131.101562 317.089844 C 131.410156 317.398438 131.746094 317.675781 132.105469 317.917969 C 132.46875 318.160156 132.847656 318.367188 133.25 318.535156 C 133.652344 318.703125 134.066406 318.828125 134.496094 318.917969 C 134.921875 319.003906 135.351562 319.046875 135.789062 319.050781 L 187.058594 319.050781 C 192.636719 325.644531 198.449219 331.050781 208.613281 332.125 L 215.933594 361.152344 C 216.015625 361.476562 216.144531 361.773438 216.328125 362.050781 C 216.511719 362.328125 216.734375 362.570312 217 362.769531 C 217.261719 362.972656 217.550781 363.121094 217.867188 363.222656 C 218.183594 363.324219 218.507812 363.371094 218.839844 363.359375 L 219.449219 363.359375 L 299.683594 346.625 C 300.507812 346.453125 301.136719 346.007812 301.574219 345.289062 C 302.027344 344.582031 302.136719 343.824219 301.894531 343.019531 Z M 134.972656 115.128906 C 134.957031 115.007812 134.964844 114.890625 135 114.777344 C 135.035156 114.660156 135.089844 114.558594 135.167969 114.464844 C 135.246094 114.375 135.335938 114.300781 135.445312 114.25 C 135.554688 114.199219 135.667969 114.171875 135.789062 114.167969 L 249.953125 114.167969 C 250.183594 114.175781 250.378906 114.261719 250.539062 114.421875 C 250.703125 114.585938 250.789062 114.78125 250.796875 115.011719 L 250.796875 171.46875 C 250.796875 173.328125 250.796875 175.421875 250.796875 177.28125 C 250.796875 179.140625 250.796875 181.640625 250.796875 183.089844 C 250.214844 185.261719 249.933594 187.46875 249.953125 189.714844 L 249.429688 234.871094 L 247.164062 236.671875 L 247.164062 126.519531 C 247.164062 126.089844 247.125 125.664062 247.042969 125.242188 C 246.960938 124.824219 246.839844 124.414062 246.675781 124.019531 C 246.515625 123.621094 246.3125 123.246094 246.078125 122.886719 C 245.839844 122.53125 245.570312 122.199219 245.269531 121.898438 C 244.964844 121.59375 244.636719 121.320312 244.28125 121.082031 C 243.925781 120.84375 243.550781 120.644531 243.152344 120.476562 C 242.757812 120.3125 242.351562 120.191406 241.929688 120.105469 C 241.507812 120.023438 241.085938 119.980469 240.65625 119.980469 L 145.546875 119.980469 C 145.121094 119.980469 144.699219 120.023438 144.277344 120.105469 C 143.859375 120.1875 143.453125 120.3125 143.058594 120.476562 C 142.664062 120.640625 142.289062 120.839844 141.933594 121.078125 C 141.578125 121.316406 141.25 121.585938 140.949219 121.886719 C 140.644531 122.1875 140.375 122.515625 140.136719 122.871094 C 139.902344 123.226562 139.699219 123.601562 139.535156 124 C 139.375 124.394531 139.25 124.800781 139.167969 125.21875 C 139.082031 125.636719 139.042969 126.0625 139.042969 126.488281 L 139.042969 169.636719 L 137.910156 169.375 L 137.210938 169.375 C 136.496094 169.332031 135.777344 169.332031 135.0625 169.375 Z M 228.949219 289.816406 L 145.546875 289.816406 C 145.355469 289.816406 145.191406 289.75 145.054688 289.613281 C 144.917969 289.476562 144.851562 289.3125 144.851562 289.121094 L 144.851562 281.101562 L 145.867188 280.171875 C 147.300781 278.734375 148.40625 277.082031 149.1875 275.210938 C 149.964844 273.339844 150.359375 271.390625 150.371094 269.363281 C 150.371094 268.75 150.371094 268.140625 150.371094 267.558594 C 150.371094 266.980469 150.371094 267.183594 150.371094 266.980469 C 150.371094 266.777344 150.371094 266.195312 150.167969 265.789062 C 149.964844 265.382812 149.789062 265.265625 149.730469 265.265625 C 149.671875 265.265625 149.527344 264.597656 149.414062 264.246094 C 149.328125 264.011719 149.230469 263.777344 149.121094 263.550781 C 149.121094 263.261719 148.859375 262.941406 148.714844 262.648438 L 148.335938 261.953125 L 147.988281 260.992188 C 147.8125 260.761719 147.667969 260.527344 147.523438 260.296875 L 146.769531 259.453125 L 146.246094 258.8125 L 145.519531 258.117188 L 145.082031 257.710938 L 145.082031 252.800781 C 145.433594 252.480469 145.78125 252.1875 146.101562 251.839844 C 147.550781 250.417969 148.667969 248.769531 149.449219 246.894531 C 150.230469 245.019531 150.617188 243.0625 150.601562 241.03125 C 150.601562 240.421875 150.601562 239.8125 150.601562 239.230469 C 150.601562 238.648438 150.601562 238.824219 150.601562 238.648438 C 150.601562 238.472656 150.601562 237.863281 150.398438 237.484375 C 150.195312 237.109375 150.253906 237.019531 150.195312 236.789062 C 150.136719 236.554688 149.992188 236.121094 149.875 235.773438 C 149.792969 235.535156 149.695312 235.300781 149.585938 235.074219 C 149.585938 234.785156 149.324219 234.464844 149.179688 234.171875 L 148.800781 233.476562 L 147.988281 232.664062 L 147.523438 231.996094 L 146.914062 231.238281 C 146.738281 231.035156 146.566406 230.804688 146.390625 230.628906 C 146.214844 230.453125 145.898438 230.136719 145.664062 229.902344 L 145.082031 229.378906 L 145.082031 224.585938 L 146.101562 223.65625 C 147.542969 222.226562 148.652344 220.574219 149.433594 218.703125 C 150.214844 216.828125 150.605469 214.875 150.601562 212.847656 C 150.601562 212.234375 150.601562 211.625 150.601562 211.042969 C 150.601562 210.464844 150.601562 210.636719 150.601562 210.464844 C 150.601562 210.289062 150.601562 209.679688 150.398438 209.300781 C 150.195312 208.921875 150.253906 208.835938 150.195312 208.605469 C 150.136719 208.371094 149.992188 207.933594 149.875 207.585938 C 149.792969 207.347656 149.695312 207.117188 149.585938 206.890625 C 149.46875 206.582031 149.332031 206.28125 149.179688 205.988281 L 148.800781 205.292969 L 147.988281 204.246094 C 147.816406 204.035156 147.664062 203.8125 147.523438 203.578125 L 146.914062 202.851562 L 146.390625 202.210938 L 145.664062 201.515625 L 145.082031 200.992188 L 145.082031 196.167969 C 145.445312 195.878906 145.78125 195.570312 146.101562 195.238281 C 147.550781 193.8125 148.664062 192.164062 149.445312 190.289062 C 150.226562 188.414062 150.613281 186.460938 150.601562 184.429688 C 150.601562 183.816406 150.601562 183.207031 150.601562 182.625 C 150.601562 182.046875 150.601562 182.21875 150.601562 182.046875 C 150.601562 181.871094 150.601562 181.261719 150.398438 180.855469 C 150.195312 180.449219 150.253906 180.417969 150.195312 180.1875 C 150.136719 179.953125 149.992188 179.519531 149.875 179.167969 C 149.792969 178.929688 149.695312 178.699219 149.585938 178.472656 C 149.46875 178.164062 149.332031 177.863281 149.179688 177.570312 L 148.800781 176.875 L 147.988281 176.03125 C 147.816406 175.820312 147.664062 175.597656 147.523438 175.363281 L 146.914062 174.636719 L 146.390625 173.996094 L 145.664062 173.300781 L 145.082031 172.777344 L 145.082031 126.519531 C 145.074219 126.320312 145.140625 126.15625 145.277344 126.015625 C 145.417969 125.875 145.585938 125.8125 145.78125 125.820312 L 240.65625 125.820312 C 240.847656 125.820312 241.011719 125.886719 241.148438 126.023438 C 241.285156 126.160156 241.355469 126.324219 241.355469 126.519531 L 241.355469 242.25 C 238.140625 245.984375 235.457031 250.066406 233.3125 254.5 C 231.164062 258.933594 229.625 263.566406 228.6875 268.402344 C 227.414062 275.558594 227.5 282.695312 228.949219 289.816406 Z M 140.320312 204.855469 C 140.96875 205.285156 141.558594 205.789062 142.085938 206.367188 C 142.609375 206.941406 143.058594 207.574219 143.429688 208.261719 C 143.796875 208.945312 144.078125 209.667969 144.269531 210.425781 C 144.460938 211.179688 144.558594 211.949219 144.5625 212.730469 C 144.550781 213.996094 144.292969 215.207031 143.789062 216.367188 C 143.285156 217.527344 142.574219 218.542969 141.65625 219.414062 C 140.789062 220.34375 139.769531 221.058594 138.601562 221.566406 C 137.4375 222.070312 136.21875 222.320312 134.945312 222.320312 L 126.113281 222.320312 C 125.695312 222.324219 125.292969 222.246094 124.90625 222.089844 C 124.515625 221.929688 124.175781 221.703125 123.878906 221.410156 C 123.578125 221.113281 123.351562 220.773438 123.191406 220.386719 C 123.027344 220 122.949219 219.597656 122.949219 219.179688 L 122.949219 206.394531 C 122.949219 205.976562 123.027344 205.574219 123.191406 205.1875 C 123.351562 204.800781 123.578125 204.460938 123.878906 204.167969 C 124.175781 203.871094 124.515625 203.644531 124.90625 203.488281 C 125.292969 203.332031 125.695312 203.253906 126.113281 203.257812 L 135.0625 203.257812 C 136.980469 203.246094 138.730469 203.777344 140.320312 204.855469 Z M 140.320312 233.15625 C 140.96875 233.585938 141.558594 234.089844 142.085938 234.667969 C 142.609375 235.242188 143.058594 235.875 143.429688 236.5625 C 143.796875 237.25 144.078125 237.96875 144.269531 238.726562 C 144.460938 239.484375 144.558594 240.25 144.5625 241.03125 C 144.550781 242.300781 144.292969 243.515625 143.789062 244.683594 C 143.285156 245.847656 142.574219 246.867188 141.65625 247.742188 C 141.203125 248.179688 140.722656 248.578125 140.203125 248.933594 C 138.609375 249.988281 136.855469 250.511719 134.945312 250.503906 L 126.113281 250.503906 C 125.695312 250.507812 125.292969 250.429688 124.90625 250.273438 C 124.515625 250.117188 124.175781 249.890625 123.878906 249.59375 C 123.578125 249.300781 123.351562 248.960938 123.191406 248.574219 C 123.027344 248.1875 122.949219 247.785156 122.949219 247.367188 L 122.949219 234.695312 C 122.949219 234.277344 123.027344 233.875 123.191406 233.488281 C 123.351562 233.101562 123.578125 232.761719 123.878906 232.46875 C 124.175781 232.171875 124.515625 231.945312 124.90625 231.789062 C 125.292969 231.632812 125.695312 231.554688 126.113281 231.558594 L 135.0625 231.558594 C 136.996094 231.589844 138.75 232.171875 140.320312 233.300781 Z M 122.890625 177.949219 C 122.890625 177.53125 122.96875 177.128906 123.132812 176.742188 C 123.292969 176.355469 123.523438 176.015625 123.820312 175.71875 C 124.117188 175.425781 124.460938 175.199219 124.847656 175.039062 C 125.234375 174.882812 125.636719 174.804688 126.054688 174.808594 L 135.003906 174.808594 C 136.917969 174.792969 138.667969 175.316406 140.261719 176.378906 C 140.910156 176.808594 141.5 177.3125 142.027344 177.890625 C 142.550781 178.464844 143 179.097656 143.371094 179.785156 C 143.738281 180.472656 144.019531 181.191406 144.210938 181.949219 C 144.402344 182.707031 144.5 183.472656 144.503906 184.253906 C 144.496094 185.519531 144.238281 186.734375 143.734375 187.894531 C 143.230469 189.054688 142.519531 190.066406 141.597656 190.9375 C 140.730469 191.867188 139.710938 192.585938 138.546875 193.089844 C 137.378906 193.59375 136.160156 193.847656 134.886719 193.84375 L 126.113281 193.84375 C 125.695312 193.84375 125.296875 193.761719 124.910156 193.605469 C 124.523438 193.445312 124.183594 193.21875 123.886719 192.925781 C 123.589844 192.632812 123.359375 192.292969 123.199219 191.90625 C 123.035156 191.523438 122.953125 191.121094 122.949219 190.703125 Z M 126.054688 278.660156 C 125.636719 278.664062 125.234375 278.585938 124.847656 278.429688 C 124.460938 278.273438 124.117188 278.046875 123.820312 277.75 C 123.523438 277.457031 123.292969 277.117188 123.132812 276.730469 C 122.96875 276.34375 122.890625 275.941406 122.890625 275.523438 L 122.890625 263.027344 C 122.890625 262.609375 122.96875 262.207031 123.132812 261.820312 C 123.292969 261.433594 123.523438 261.09375 123.820312 260.796875 C 124.117188 260.503906 124.460938 260.277344 124.847656 260.121094 C 125.234375 259.960938 125.636719 259.886719 126.054688 259.890625 L 135.003906 259.890625 C 136.921875 259.878906 138.675781 260.410156 140.261719 261.488281 C 140.910156 261.917969 141.5 262.421875 142.027344 262.996094 C 142.550781 263.574219 143 264.207031 143.371094 264.890625 C 143.738281 265.578125 144.019531 266.300781 144.210938 267.058594 C 144.402344 267.8125 144.5 268.582031 144.503906 269.363281 C 144.492188 270.625 144.234375 271.839844 143.730469 273 C 143.226562 274.160156 142.515625 275.175781 141.597656 276.042969 C 141.148438 276.480469 140.664062 276.878906 140.144531 277.234375 C 138.554688 278.304688 136.800781 278.828125 134.886719 278.804688 L 126.113281 278.804688 Z M 134.917969 312.25 L 134.917969 284.472656 C 135.632812 284.515625 136.347656 284.515625 137.066406 284.472656 L 137.792969 284.472656 L 138.894531 284.269531 L 138.894531 289.265625 C 138.894531 289.691406 138.9375 290.117188 139.019531 290.535156 C 139.105469 290.953125 139.226562 291.363281 139.390625 291.757812 C 139.554688 292.152344 139.753906 292.527344 139.992188 292.882812 C 140.230469 293.238281 140.5 293.566406 140.800781 293.867188 C 141.105469 294.171875 141.433594 294.441406 141.789062 294.675781 C 142.144531 294.914062 142.519531 295.117188 142.914062 295.277344 C 143.308594 295.441406 143.714844 295.566406 144.132812 295.648438 C 144.554688 295.734375 144.976562 295.773438 145.402344 295.773438 L 230.429688 295.773438 C 230.957031 297.582031 231.585938 299.355469 232.320312 301.09375 C 232.4375 301.402344 232.550781 301.691406 232.667969 301.964844 L 233.191406 303.183594 L 234.292969 305.480469 C 234.554688 306.089844 234.875 306.671875 235.136719 307.164062 C 235.949219 308.675781 236.910156 310.304688 238.042969 311.929688 C 238.179688 312.097656 238.238281 312.292969 238.214844 312.511719 C 238.253906 312.648438 238.253906 312.78125 238.214844 312.917969 C 238.058594 313.25 237.796875 313.40625 237.433594 313.382812 L 135.789062 313.382812 C 135.664062 313.378906 135.546875 313.351562 135.4375 313.300781 C 135.328125 313.246094 135.230469 313.171875 135.152344 313.074219 C 135.074219 312.980469 135.019531 312.875 134.988281 312.753906 C 134.957031 312.636719 134.953125 312.515625 134.972656 312.394531 Z M 220.902344 356.910156 L 214.453125 331.515625 C 215.011719 330.953125 215.292969 330.273438 215.296875 329.480469 C 215.296875 329.09375 215.222656 328.722656 215.074219 328.367188 C 214.929688 328.011719 214.71875 327.699219 214.445312 327.425781 C 214.171875 327.152344 213.859375 326.945312 213.503906 326.796875 C 213.148438 326.648438 212.777344 326.574219 212.390625 326.574219 C 210.75 326.632812 209.125 326.507812 207.511719 326.203125 C 205.898438 325.898438 204.339844 325.421875 202.832031 324.769531 C 201.324219 324.121094 199.90625 323.3125 198.578125 322.347656 C 197.25 321.382812 196.046875 320.28125 194.960938 319.050781 L 237.257812 319.050781 C 237.867188 319.050781 238.464844 318.96875 239.050781 318.808594 C 239.640625 318.644531 240.195312 318.410156 240.714844 318.09375 C 241.238281 317.78125 241.710938 317.40625 242.128906 316.964844 C 242.550781 316.523438 242.902344 316.03125 243.191406 315.496094 C 243.476562 314.957031 243.6875 314.390625 243.820312 313.796875 C 243.949219 313.203125 244 312.601562 243.96875 311.992188 C 243.9375 311.382812 243.828125 310.792969 243.632812 310.214844 C 243.441406 309.636719 243.175781 309.09375 242.835938 308.589844 L 242.515625 308.066406 C 242.167969 307.511719 241.789062 306.933594 241.46875 306.378906 C 241.152344 305.828125 240.628906 304.925781 240.25 304.199219 C 239.976562 303.761719 239.734375 303.308594 239.523438 302.835938 C 238.738281 301.296875 238.070312 299.695312 237.433594 298.097656 L 236.910156 296.703125 C 236.617188 295.863281 236.386719 295.046875 236.125 294.207031 C 235.863281 293.363281 235.632812 292.753906 235.457031 291.996094 L 235.457031 291.445312 C 233.578125 284.214844 233.277344 276.921875 234.554688 269.566406 C 235.414062 265.054688 236.859375 260.742188 238.894531 256.625 C 240.933594 252.511719 243.484375 248.746094 246.554688 245.332031 C 248.820312 242.816406 251.347656 240.597656 254.136719 238.675781 L 255.355469 237.804688 L 255.761719 189.714844 C 255.777344 188.117188 256 186.550781 256.429688 185.007812 L 256.664062 184.488281 L 256.664062 184.3125 C 257.160156 182.671875 257.875 181.132812 258.800781 179.691406 C 259.722656 178.25 260.828125 176.960938 262.109375 175.828125 C 263.390625 174.691406 264.804688 173.75 266.34375 173.003906 C 267.886719 172.261719 269.5 171.738281 271.1875 171.441406 L 271.1875 207.441406 C 271.246094 210.328125 271.738281 213.136719 272.667969 215.867188 L 277.460938 230.714844 C 280.609375 239.175781 282.671875 247.894531 283.648438 256.867188 C 284.1875 265.914062 284.1875 274.960938 283.648438 284.007812 C 283.386719 289.148438 283.15625 294.496094 283.128906 299.785156 C 283.128906 300.976562 283.621094 302.691406 286.902344 311.40625 C 287.628906 313.296875 288.269531 314.894531 288.441406 315.476562 L 295.617188 341.394531 Z M 220.902344 356.910156 " fill-opacity="1" fill-rule="nonzero"/></g></svg>