<svg xmlns="http://www.w3.org/2000/svg" xmlns:xlink="http://www.w3.org/1999/xlink" width="512" zoomAndPan="magnify" viewBox="0 0 384 383.999986" height="512" preserveAspectRatio="xMidYMid meet" version="1.0"><defs><clipPath id="214865cea6"><path d="M 68.230469 253 L 192 253 L 192 377.59375 L 68.230469 377.59375 Z M 68.230469 253 " clip-rule="nonzero"/></clipPath><clipPath id="98d9501159"><path d="M 68.230469 130 L 192 130 L 192 254 L 68.230469 254 Z M 68.230469 130 " clip-rule="nonzero"/></clipPath><clipPath id="5706d1d8d9"><path d="M 68.230469 6.34375 L 192 6.34375 L 192 131 L 68.230469 131 Z M 68.230469 6.34375 " clip-rule="nonzero"/></clipPath><clipPath id="784f1cc518"><path d="M 191 6.34375 L 315.730469 6.34375 L 315.730469 131 L 191 131 Z M 191 6.34375 " clip-rule="nonzero"/></clipPath><clipPath id="45202b7cb1"><path d="M 191 130 L 315.730469 130 L 315.730469 254 L 191 254 Z M 191 130 " clip-rule="nonzero"/></clipPath></defs><g clip-path="url(#214865cea6)"><path fill="#0acf83" d="M 130.105469 377.59375 C 164.261719 377.59375 191.980469 349.871094 191.980469 315.71875 L 191.980469 253.84375 L 130.105469 253.84375 C 95.949219 253.84375 68.230469 281.5625 68.230469 315.71875 C 68.230469 349.871094 95.949219 377.59375 130.105469 377.59375 Z M 130.105469 377.59375 " fill-opacity="1" fill-rule="nonzero"/></g><g clip-path="url(#98d9501159)"><path fill="#a259ff" d="M 68.230469 191.96875 C 68.230469 157.816406 95.949219 130.097656 130.105469 130.097656 L 191.980469 130.097656 L 191.980469 253.84375 L 130.105469 253.84375 C 95.949219 253.84375 68.230469 226.125 68.230469 191.96875 Z M 68.230469 191.96875 " fill-opacity="1" fill-rule="nonzero"/></g><g clip-path="url(#5706d1d8d9)"><path fill="#f24e1e" d="M 68.230469 68.222656 C 68.230469 34.066406 95.949219 6.347656 130.105469 6.347656 L 191.980469 6.347656 L 191.980469 130.097656 L 130.105469 130.097656 C 95.949219 130.097656 68.230469 102.375 68.230469 68.222656 Z M 68.230469 68.222656 " fill-opacity="1" fill-rule="nonzero"/></g><g clip-path="url(#784f1cc518)"><path fill="#ff7262" d="M 191.980469 6.347656 L 253.855469 6.347656 C 288.011719 6.347656 315.730469 34.066406 315.730469 68.222656 C 315.730469 102.375 288.011719 130.097656 253.855469 130.097656 L 191.980469 130.097656 Z M 191.980469 6.347656 " fill-opacity="1" fill-rule="nonzero"/></g><g clip-path="url(#45202b7cb1)"><path fill="#1abcfe" d="M 315.730469 191.96875 C 315.730469 226.125 288.011719 253.84375 253.855469 253.84375 C 219.699219 253.84375 191.980469 226.125 191.980469 191.96875 C 191.980469 157.816406 219.699219 130.097656 253.855469 130.097656 C 288.011719 130.097656 315.730469 157.816406 315.730469 191.96875 Z M 315.730469 191.96875 " fill-opacity="1" fill-rule="nonzero"/></g></svg>